<svg xmlns="http://www.w3.org/2000/svg" x="0px" y="0px"
width="50" height="50"
viewBox="0 0 172 172"
style=" fill:#fff;"><g fill="none" fill-rule="nonzero" stroke="none" stroke-width="1" stroke-linecap="butt" stroke-linejoin="miter" stroke-miterlimit="10" stroke-dasharray="" stroke-dashoffset="0" font-family="none" font-weight="none" font-size="none" text-anchor="none" style="mix-blend-mode: normal"><path d="M0,172v-172h172v172z" fill="none"></path><g fill="#fff"><path d="M48.50265,0c-5.8824,0 -10.66265,4.644 -10.66265,10.32v113.52c0,5.676 4.78025,10.32 10.66265,10.32h24.73172l-2.50609,-6.88h-22.22563c-2.0984,0 -3.78265,-1.548 -3.78265,-3.44v-113.52c0,-1.892 1.68425,-3.44 3.78265,-3.44h9.97735v3.44c0,1.89888 1.54112,3.44 3.44,3.44h30.96c1.89888,0 3.44,-1.54112 3.44,-3.44v-3.44h9.97735c2.0984,0 3.78265,1.548 3.78265,3.44v104.51015c0.172,0.0688 0.31255,0.13196 0.45015,0.23516c1.72,-1.892 3.91865,-3.33573 6.42985,-4.05813v-100.68719c0,-5.676 -4.78025,-10.32 -10.66265,-10.32zM77.4,27.52c-7.59944,0 -13.76,6.16056 -13.76,13.76c0,7.59944 6.16056,13.76 13.76,13.76c7.59944,0 13.76,-6.16056 13.76,-13.76c0,-7.59944 -6.16056,-13.76 -13.76,-13.76zM72.24,58.48c-9.48408,0 -17.2,7.71592 -17.2,17.2c0,1.89888 1.54112,3.44 3.44,3.44h37.84c1.90232,0 3.44,-1.54112 3.44,-3.44c0,-9.48408 -7.71592,-17.2 -17.2,-17.2zM61.92,89.44c-2.8552,0 -5.43225,1.17255 -7.28985,3.03015c-1.8576,1.8576 -3.03015,4.43465 -3.03015,7.28985c0,5.7104 4.6096,10.32 10.32,10.32h3.44c0,-2.2016 0.55362,-4.43465 1.58563,-6.42985c1.8232,-3.44 5.01756,-5.95711 8.80156,-6.92031c1.0664,-0.2752 2.17123,-0.40985 3.27203,-0.40985c5.8136,0 11.11147,3.7848 13.17547,9.4264l1.54531,4.26641c2.5112,-0.172 4.74425,-1.27737 6.42985,-2.96297c1.8576,-1.8576 3.03015,-4.43465 3.03015,-7.28985c0,-5.7104 -4.6096,-10.32 -10.32,-10.32zM79.46937,103.20672c-0.89262,-0.04547 -1.80826,0.08477 -2.70094,0.40985c-3.57072,1.29688 -5.41219,5.24428 -4.11187,8.815l12.94031,35.5489l-0.00672,0.00672l7.49813,20.57281h69.5525l-15.61438,-42.93281l-0.01344,0.00672l-2.35156,-6.46344c-1.29688,-3.57072 -5.251,-5.41219 -8.82172,-4.11187c-3.57072,1.29688 -5.40547,5.251 -4.10515,8.82172l2.34484,6.45l-3.23172,1.17578l-3.52734,-9.68844c-1.29688,-3.57072 -5.24428,-5.40547 -8.815,-4.10515c-3.57072,1.29688 -5.4122,5.24428 -4.11188,8.815l2.35828,6.47687l-3.23844,1.17578l-3.53406,-9.70859c-1.29688,-3.57072 -5.24428,-5.4122 -8.815,-4.11188c-3.57072,1.29688 -5.41219,5.24428 -4.11187,8.815l3.53406,9.7086l-3.23172,1.17578l-11.77125,-32.33063c-0.97266,-2.67804 -3.43618,-4.3853 -6.11406,-4.52172z"></path></g></g></svg>