<?xml version="1.0" encoding="UTF-8"?>
<svg xmlns="http://www.w3.org/2000/svg" xmlns:xlink="http://www.w3.org/1999/xlink" viewBox="0 0 512 512" width="512px" height="512px">
<g id="surface17521689">
<path style=" stroke:none;fill-rule:nonzero;fill:rgb(67.450982%,2.352941%,23.529412%);fill-opacity:1;" d="M 400.800781 416 L 76 416 C 54 416 36 398 36 376 L 36 116 L 430.800781 116 C 454.800781 116 473.601562 137.199219 470.398438 160.800781 L 440.398438 380.800781 C 438 400.800781 420.800781 416 400.800781 416 Z M 400.800781 416 "/>
<path style=" stroke:none;fill-rule:nonzero;fill:rgb(78.039217%,0%,22.352941%);fill-opacity:1;" d="M 416 416 L 76 416 C 54 416 36 398 36 376 L 36 96 L 134.398438 96 C 147.601562 96 160.398438 102.800781 167.601562 114 L 184 138.398438 C 191.601562 149.601562 204 156.398438 217.199219 156.398438 L 356 156.398438 C 378 156.398438 396 174.398438 396 196.398438 L 396 368 C 396 386 403.199219 403.199219 416 416 Z M 416 416 "/>
<path style=" stroke:none;fill-rule:nonzero;fill:rgb(0%,0%,0%);fill-opacity:1;" d="M 400.800781 428 L 76 428 C 47.199219 428 24 404.800781 24 376 L 24 96 C 24 89.199219 29.199219 84 36 84 L 134.398438 84 C 152 84 168 92.800781 177.601562 107.199219 L 194 131.601562 C 199.199219 139.601562 208 144 217.199219 144 L 356 144 C 384.800781 144 408 167.199219 408 196 L 408 336 C 408 342.800781 402.800781 348 396 348 C 389.199219 348 384 342.800781 384 336 L 384 196 C 384 180.398438 371.601562 168 356 168 L 217.601562 168 C 200 168 184 159.199219 174.398438 144.800781 L 158 120.398438 C 152.800781 112.398438 144 108 134.800781 108 L 48 108 L 48 376 C 48 391.601562 60.398438 404 76 404 L 400.800781 404 C 414.800781 404 426.800781 393.601562 428.398438 379.601562 L 458.398438 159.601562 C 459.199219 151.601562 456.800781 143.601562 451.601562 137.601562 C 446.398438 131.601562 438.800781 128 430.800781 128 C 424 128 418.800781 122.800781 418.800781 116 C 418.800781 109.199219 424 104 430.800781 104 C 445.601562 104 460 110.398438 469.601562 121.601562 C 479.601562 132.800781 484 147.601562 482.398438 162.398438 L 452.398438 382.398438 C 449.199219 408.398438 426.800781 428 400.800781 428 Z M 400.800781 428 "/>
<path style=" stroke:none;fill-rule:nonzero;fill:rgb(0%,0%,0%);fill-opacity:1;" d="M 430.800781 128 L 172 128 C 165.199219 128 160 122.800781 160 116 C 160 109.199219 165.199219 104 172 104 L 430.800781 104 C 437.601562 104 442.800781 109.199219 442.800781 116 C 442.800781 122.800781 437.199219 128 430.800781 128 Z M 430.800781 128 "/>
</g>

</svg>
