<?xml version="1.0" encoding="utf-8"?>
<!-- Generator: Adobe Illustrator 24.0.2, SVG Export Plug-In . SVG Version: 6.00 Build 0)  -->
<svg version="1.1" id="Capa_1" xmlns="http://www.w3.org/2000/svg" xmlns:xlink="http://www.w3.org/1999/xlink" x="0px" y="0px"
	 viewBox="0 0 1019 527" style="enable-background:new 0 0 1019 527;" xml:space="preserve">
<style type="text/css">
	.st0{fill:#FFFFFF;fill-opacity:0;}
	.st1{fill:#C9C9C9;}
	.st2{fill:#CECECE;}
	.st3{fill:#FFFFFF;}
	.st4{fill:none;stroke:#1F3969;stroke-width:4;stroke-linecap:round;stroke-linejoin:round;stroke-miterlimit:10;}
	.st5{fill:#FF3E3E;}
	
		.st6{opacity:0.28;fill:#1F3969;stroke:#1F3969;stroke-width:4;stroke-linecap:round;stroke-linejoin:round;stroke-miterlimit:10;enable-background:new    ;}
	.st7{fill:#50B56F;}
	.st8{fill:#5F5AFF;}
	.st9{fill:#F6F9FD;}
	.st10{fill:#BFCFE2;}
	.st11{fill:#2D425E;}
	.st12{fill:#D0DDF0;}
	.st13{fill:#2AA1FF;}
	
		.st14{opacity:0.34;fill:none;stroke:#FFFFFF;stroke-width:2;stroke-linecap:round;stroke-linejoin:round;stroke-miterlimit:10;enable-background:new    ;}
	.st15{opacity:0.34;}
	.st16{fill:none;stroke:#FFFFFF;stroke-width:2;stroke-linecap:round;stroke-linejoin:round;stroke-miterlimit:10;}
	.st17{fill:#1F3969;}
	.st18{fill:none;stroke:#FFFFFF;stroke-width:4;stroke-linecap:round;stroke-linejoin:round;stroke-miterlimit:10;}
	.st19{fill:none;stroke:#7BFFA0;stroke-width:4;stroke-linecap:round;stroke-linejoin:round;stroke-miterlimit:10;}
	.st20{fill:none;stroke:#9169FF;stroke-width:4;stroke-linecap:round;stroke-linejoin:round;stroke-miterlimit:10;}
	.st21{fill:none;stroke:#FFC47D;stroke-width:4;stroke-linecap:round;stroke-linejoin:round;stroke-miterlimit:10;}
	.st22{fill:none;stroke:#FF5757;stroke-width:4;stroke-linecap:round;stroke-linejoin:round;stroke-miterlimit:10;}
	.st23{fill:#FFA364;}
	.st24{fill:none;stroke:#1F3969;stroke-width:4.0002;stroke-linecap:round;stroke-linejoin:round;stroke-miterlimit:10.0004;}
	.st25{fill:#FF5252;}
	.st26{fill:none;stroke:#1F3969;stroke-width:3.9996;stroke-linecap:round;stroke-linejoin:round;stroke-miterlimit:9.9992;}
	.st27{fill:#6567C3;}
	.st28{fill:none;}
</style>
<rect x="-0.6" y="-0.1" class="st0" width="1019.7" height="527.6"/>
<g id="XMLID_34_">
	<path id="XMLID_223_" class="st1" d="M960.3,521H16.5c-7.6,0-13.7-6.1-13.7-13.7l0,0c0-7.6,6.1-13.7,13.7-13.7h943.8
		c7.6,0,13.7,6.1,13.7,13.7l0,0C974,514.9,967.9,521,960.3,521z"/>
	<g id="XMLID_19_">
		<g id="XMLID_163_">
			<path id="XMLID_178_" class="st2" d="M194.1,379.5c-14.6,0-26.3-11.9-26.3-26.3s11.9-26.3,26.3-26.3h149.1v52.8H194.1V379.5z"/>
			<path id="XMLID_162_" class="st3" d="M351.9,388.6H194.1c-19.6,0-35.5-16-35.5-35.5l0,0c0-19.6,16-35.5,35.5-35.5h157.8V388.6
				L351.9,388.6z"/>
			<line id="XMLID_164_" class="st4" x1="184.4" y1="345" x2="343.2" y2="345"/>
			<line id="XMLID_173_" class="st4" x1="184.4" y1="361.1" x2="343.2" y2="361.1"/>
			<path id="XMLID_179_" class="st4" d="M194.1,379.5c-14.6,0-26.3-11.9-26.3-26.3s11.9-26.3,26.3-26.3h149.1v52.8H194.1V379.5z"/>
			<path id="XMLID_161_" class="st5" d="M194.1,379.5c-14.6,0-26.3-11.9-26.3-26.3s11.9-26.3,26.3-26.3h151.7l6.1-9.1H194.1
				c-19.6,0-35.5,16-35.5,35.5l0,0c0,19.6,16,35.5,35.5,35.5h157.8l-6.1-9.1H194.1V379.5z"/>
			<path id="XMLID_182_" class="st4" d="M194.1,379.5c-14.6,0-26.3-11.9-26.3-26.3s11.9-26.3,26.3-26.3h151.7l6.1-9.1H194.1
				c-19.6,0-35.5,16-35.5,35.5l0,0c0,19.6,16,35.5,35.5,35.5h157.8l-6.1-9.1H194.1V379.5z"/>
			<rect id="XMLID_224_" x="290" y="317.6" class="st6" width="28" height="71.1"/>
		</g>
		<g id="XMLID_160_">
			<path id="XMLID_157_" class="st7" d="M335.6,447.2H46.7c-5.6,0-10.3-4.6-10.3-10.3v-38c0-5.6,4.6-10.3,10.3-10.3h288.9
				c5.6,0,10.3,4.6,10.3,10.3v38C345.9,442.6,341.4,447.2,335.6,447.2z"/>
			<g>
				<path class="st3" d="M124.7,419.8h-4v8.4h-2.6V408h6.5c4.7,0,7,2.6,7,5.9C131.7,416.9,129.7,419.8,124.7,419.8z M124.7,417.5
					c3,0,4.3-1.4,4.3-3.7c0-2.3-1.2-3.8-4.3-3.8h-4v7.5H124.7z"/>
				<path class="st3" d="M139,408h2.9l5,10.2l5-10.2h2.9l-6.5,12.6v7.6h-2.6v-7.6L139,408z"/>
				<path class="st3" d="M162.1,408h13.7v2.1h-5.5v18.1h-2.6v-18.1h-5.5L162.1,408L162.1,408z"/>
				<path class="st3" d="M197.9,419.1h-10.3v9.1H185V408h2.6v8.8h10.3V408h2.6v20.2h-2.6V419.1z"/>
				<path class="st3" d="M220,428.3c-5.6,0-10.2-4.3-10.2-10.3c0-6.1,4.4-10.3,10.2-10.3s10.2,4.3,10.2,10.3
					C230,424.1,225.6,428.3,220,428.3z M220,426.1c4.3,0,7.5-3,7.5-8.1c0-5-3.2-8.1-7.5-8.1s-7.5,3-7.5,8.1
					C212.5,423,215.7,426.1,220,426.1z"/>
				<path class="st3" d="M255.3,408v20.2h-2.6L242,412.1v16.1h-2.6V408h2.6l10.7,16v-16H255.3z"/>
			</g>
			<path id="XMLID_146_" class="st4" d="M335.6,447.2H46.7c-5.6,0-10.3-4.6-10.3-10.3v-38c0-5.6,4.6-10.3,10.3-10.3h288.9
				c5.6,0,10.3,4.6,10.3,10.3v38C345.9,442.6,341.4,447.2,335.6,447.2z"/>
		</g>
		<path id="XMLID_246_" class="st6" d="M335.6,388.6H290v22.8c0,14.3,11.6,26,26,26h30c0-0.2,0-0.3,0-0.5v-38
			C345.9,393.2,341.4,388.6,335.6,388.6z"/>
		<path id="XMLID_35_" class="st2" d="M417,459.1H82.3c2,4.9,3,11,3,17.3s-1.1,12.3-3,17.3h334.6c-2-4.9-3-11-3-17.3
			C414,469.9,415,463.9,417,459.1z"/>
		<rect id="XMLID_156_" x="73.3" y="449.8" class="st8" width="352.8" height="9.1"/>
		<rect id="XMLID_32_" x="73.3" y="449.8" class="st4" width="352.8" height="9.1"/>
		<rect id="XMLID_147_" x="73.3" y="493.6" class="st9" width="352.8" height="9.1"/>
		<rect id="XMLID_39_" x="73.3" y="493.6" class="st8" width="352.8" height="9.1"/>
		<rect id="XMLID_37_" x="73.3" y="493.6" class="st4" width="352.8" height="9.1"/>
		<path id="XMLID_69_" class="st10" d="M601.4,470.3l-4.6-51.3h-75.2l-4.6,51.3c-1.1,11.9-8.2,23.3-19.5,32.4v0.2h123.4v-0.2
			C609.6,493.6,602.5,482.2,601.4,470.3z"/>
		<polygon id="XMLID_33_" class="st6" points="521.7,419.1 518.9,449.8 599.6,449.8 596.8,419.1 		"/>
		<path id="XMLID_10_" class="st4" d="M601.4,470.3l-4.6-51.3h-75.2l-4.6,51.3c-1.1,11.9-8.2,23.3-19.5,32.4v0.2h123.4v-0.2
			C609.6,493.6,602.5,482.2,601.4,470.3z"/>
		<path id="XMLID_13_" class="st3" d="M799.7,426.7H318.9c-10,0-18.3-8.2-18.3-18.3V95c0-10,8.2-18.3,18.3-18.3h480.8
			c10,0,18.3,8.2,18.3,18.3v313.4C817.9,418.6,809.7,426.7,799.7,426.7z"/>
		<path id="XMLID_63_" class="st10" d="M799.7,426.7H318.9c-10,0-18.3-8.2-18.3-18.3V95c0-10,8.2-18.3,18.3-18.3h480.8
			c10,0,18.3,8.2,18.3,18.3v313.4C817.9,418.6,809.7,426.7,799.7,426.7z"/>
		<path id="XMLID_4_" class="st4" d="M799.7,426.7H318.9c-10,0-18.3-8.2-18.3-18.3V95c0-10,8.2-18.3,18.3-18.3h480.8
			c10,0,18.3,8.2,18.3,18.3v313.4C817.9,418.6,809.7,426.7,799.7,426.7z"/>
		<rect id="XMLID_68_" x="326.6" y="102.6" class="st9" width="465.6" height="265.7"/>
		<path id="XMLID_197_" class="st6" d="M343.2,76.7v210.9c0,6.7,5.5,12.2,12.2,12.2h287.7c6.7,0,12.2-5.5,12.2-12.2V76.7H343.2z"/>
		<rect id="XMLID_11_" x="326.6" y="102.6" class="st4" width="465.6" height="265.7"/>
		<line id="XMLID_9_" class="st4" x1="538.9" y1="397.3" x2="579.8" y2="397.3"/>
		<path id="XMLID_15_" class="st11" d="M656.8,283H369.1c-6.7,0-12.2-5.5-12.2-12.2V45.4c0-6.7,5.5-12.2,12.2-12.2h287.7
			c6.7,0,12.2,5.5,12.2,12.2V271C669,277.7,663.5,283,656.8,283z"/>
		<path id="XMLID_17_" class="st4" d="M669,62.7H356.9V45.2c0-6.7,5.5-12.2,12.2-12.2h287.7c6.7,0,12.2,5.5,12.2,12.2L669,62.7
			L669,62.7z"/>
		<path id="XMLID_23_" class="st12" d="M669,68.5H356.9V45.2c0-6.7,5.5-12.2,12.2-12.2h287.7c6.7,0,12.2,5.5,12.2,12.2L669,68.5
			L669,68.5z"/>
		<path id="XMLID_18_" class="st4" d="M669,68.5H356.9V45.2c0-6.7,5.5-12.2,12.2-12.2h287.7c6.7,0,12.2,5.5,12.2,12.2L669,68.5
			L669,68.5z"/>
		<path id="XMLID_20_" class="st4" d="M669,68.5H356.9V45.2c0-6.7,5.5-12.2,12.2-12.2h287.7c6.7,0,12.2,5.5,12.2,12.2L669,68.5
			L669,68.5z"/>
		<path id="XMLID_12_" class="st4" d="M656.8,283H369.1c-6.7,0-12.2-5.5-12.2-12.2V45.4c0-6.7,5.5-12.2,12.2-12.2h287.7
			c6.7,0,12.2,5.5,12.2,12.2V271C669,277.7,663.5,283,656.8,283z"/>
		<g id="XMLID_72_">
			<path id="XMLID_7_" class="st6" d="M807,336.9H630.5c-6.7,0-12.2-5.5-12.2-12.2v-187c0-6.7,5.5-12.2,12.2-12.2H807
				c6.7,0,12.2,5.5,12.2,12.2v187C819.1,331.6,813.6,336.9,807,336.9z"/>
			<path id="XMLID_16_" class="st13" d="M819.1,326.2H642.6c-6.7,0-12.2-5.5-12.2-12.2V127c0-6.7,5.5-12.2,12.2-12.2h176.5
				c6.7,0,12.2,5.5,12.2,12.2v187C831.3,320.9,825.8,326.2,819.1,326.2z"/>
			<path id="XMLID_14_" class="st4" d="M819.1,326.2H642.6c-6.7,0-12.2-5.5-12.2-12.2V127c0-6.7,5.5-12.2,12.2-12.2h176.5
				c6.7,0,12.2,5.5,12.2,12.2v187C831.3,320.9,825.8,326.2,819.1,326.2z"/>
			<path id="XMLID_75_" class="st14" d="M792.8,172.9H668.7c-4.4,0-7.9-3.5-7.9-7.9v-11.9c0-4.4,3.5-7.9,7.9-7.9h124.2
				c4.4,0,7.9,3.5,7.9,7.9V165C800.7,169.4,797.2,172.9,792.8,172.9z"/>
			<g id="XMLID_143_" class="st15">
				<path id="XMLID_78_" class="st16" d="M738.3,217.5h-69.4c-4.4,0-7.9-3.5-7.9-7.9v-11.9c0-4.4,3.5-7.9,7.9-7.9h69.4
					c4.4,0,7.9,3.5,7.9,7.9v11.9C746.1,214,742.6,217.5,738.3,217.5z"/>
				<path id="XMLID_79_" class="st16" d="M793,217.5h-26.9c-4.4,0-7.9-3.5-7.9-7.9v-11.9c0-4.4,3.5-7.9,7.9-7.9H793
					c4.4,0,7.9,3.5,7.9,7.9v11.9C800.9,214,797.4,217.5,793,217.5z"/>
			</g>
			<g id="XMLID_76_">
				<line id="XMLID_135_" class="st16" x1="660.9" y1="263.7" x2="800.7" y2="263.7"/>
				<line id="XMLID_136_" class="st16" x1="660.9" y1="280.1" x2="800.7" y2="280.1"/>
				<line id="XMLID_138_" class="st16" x1="660.9" y1="296.6" x2="746.1" y2="296.6"/>
			</g>
		</g>
		<circle id="XMLID_24_" class="st17" cx="387.5" cy="50.9" r="6.1"/>
		<circle id="XMLID_28_" class="st17" cx="408.6" cy="50.9" r="6.1"/>
		<circle id="XMLID_38_" class="st17" cx="429.8" cy="50.9" r="6.1"/>
		<g id="XMLID_61_">
			<line id="XMLID_54_" class="st18" x1="536.1" y1="96.7" x2="555.9" y2="96.7"/>
			<line id="XMLID_66_" class="st19" x1="435.9" y1="96.7" x2="521.5" y2="96.7"/>
			<line id="XMLID_29_" class="st20" x1="393.6" y1="96.7" x2="423.7" y2="96.7"/>
		</g>
		<g id="XMLID_42_">
			<line id="XMLID_62_" class="st20" x1="432.8" y1="246.5" x2="498.2" y2="246.5"/>
			<line id="XMLID_30_" class="st19" x1="393.6" y1="246.5" x2="414.7" y2="246.5"/>
		</g>
		<g id="XMLID_27_">
			<line id="XMLID_60_" class="st18" x1="521.5" y1="115.4" x2="533.8" y2="115.4"/>
			<line id="XMLID_45_" class="st20" x1="465.5" y1="115.4" x2="506.9" y2="115.4"/>
			<line id="XMLID_47_" class="st21" x1="408.6" y1="115.4" x2="450.8" y2="115.4"/>
		</g>
		<g id="XMLID_49_">
			<line id="XMLID_59_" class="st18" x1="473.9" y1="134.1" x2="510.3" y2="134.1"/>
			<line id="XMLID_50_" class="st22" x1="428.3" y1="134.1" x2="462.5" y2="134.1"/>
		</g>
		<g id="XMLID_65_">
			<line id="XMLID_58_" class="st18" x1="478.8" y1="152.8" x2="486.2" y2="152.8"/>
			<line id="XMLID_70_" class="st20" x1="448.6" y1="152.8" x2="465.5" y2="152.8"/>
			<line id="XMLID_67_" class="st19" x1="408.6" y1="152.8" x2="435.9" y2="152.8"/>
		</g>
		<g id="XMLID_73_">
			<line id="XMLID_77_" class="st21" x1="467.1" y1="171.7" x2="515.6" y2="171.7"/>
			<line id="XMLID_74_" class="st22" x1="408.6" y1="171.7" x2="452.1" y2="171.7"/>
		</g>
		<g id="XMLID_80_">
			<line id="XMLID_64_" class="st20" x1="523.2" y1="190.4" x2="549.5" y2="190.4"/>
			<line id="XMLID_84_" class="st22" x1="467.1" y1="190.4" x2="509.2" y2="190.4"/>
			<line id="XMLID_81_" class="st19" x1="428.3" y1="190.4" x2="452.1" y2="190.4"/>
		</g>
		<g id="XMLID_87_">
			<line id="XMLID_95_" class="st18" x1="486.2" y1="209.1" x2="509.2" y2="209.1"/>
			<line id="XMLID_90_" class="st20" x1="428.3" y1="209.1" x2="470.4" y2="209.1"/>
		</g>
		<g id="XMLID_98_">
			<line id="XMLID_71_" class="st18" x1="546" y1="227.8" x2="572.3" y2="227.8"/>
			<line id="XMLID_102_" class="st21" x1="465.5" y1="227.8" x2="531.7" y2="227.8"/>
			<line id="XMLID_99_" class="st18" x1="408.6" y1="227.8" x2="450.8" y2="227.8"/>
		</g>
		<line id="XMLID_145_" class="st4" x1="86.1" y1="469.6" x2="414" y2="469.6"/>
		<line id="XMLID_151_" class="st4" x1="86.1" y1="481.7" x2="414" y2="481.7"/>
		<path id="XMLID_158_" class="st4" d="M417,459.1H82.3c2,4.9,3,11,3,17.3s-1.1,12.3-3,17.3h334.6c-2-4.9-3-11-3-17.3
			C414,469.9,415,463.9,417,459.1z"/>
		<rect x="73" y="397" class="st7" width="203" height="40"/>
	</g>
	<g id="XMLID_222_">
		<g id="XMLID_174_">
			
				<rect id="XMLID_177_" x="858.9" y="335.5" transform="matrix(0.9932 -0.1166 0.1166 0.9932 -39.6539 103.6826)" class="st23" width="14.9" height="110.5"/>
			
				<rect id="XMLID_31_" x="853.1" y="336" transform="matrix(0.9932 -0.1166 0.1166 0.9932 -33.9689 102.6721)" class="st13" width="14.9" height="11.3"/>
			
				<rect id="XMLID_217_" x="853.1" y="336" transform="matrix(0.9932 -0.1166 0.1166 0.9932 -33.9689 102.6721)" class="st24" width="14.9" height="11.3"/>
			
				<rect id="XMLID_22_" x="858.9" y="335.5" transform="matrix(0.9932 -0.1166 0.1166 0.9932 -39.6539 103.6826)" class="st24" width="14.9" height="110.5"/>
		</g>
		<g id="XMLID_189_">
			
				<rect id="XMLID_218_" x="839.2" y="404.2" transform="matrix(0.1081 -0.9941 0.9941 0.1081 388.5629 1256.3174)" class="st25" width="110.5" height="14.9"/>
			
				<rect id="XMLID_214_" x="839.2" y="404.2" transform="matrix(0.1081 -0.9941 0.9941 0.1081 388.5629 1256.3174)" class="st26" width="110.5" height="14.9"/>
			
				<rect id="XMLID_220_" x="894.3" y="355" transform="matrix(0.1081 -0.9941 0.9941 0.1081 442.4237 1217.9498)" class="st11" width="11.3" height="14.9"/>
			
				<rect id="XMLID_211_" x="894.3" y="355" transform="matrix(0.1081 -0.9941 0.9941 0.1081 442.4237 1217.9498)" class="st26" width="11.3" height="14.9"/>
		</g>
		<polygon id="XMLID_26_" class="st27" points="917.1,503.2 857.3,503.2 847.6,411.6 926.8,411.6 		"/>
		<polygon id="XMLID_233_" class="st27" points="847.6,411.6 847.7,413.3 908.1,413.3 898.5,503.2 917.1,503.2 926.8,411.6 		"/>
		<polygon id="XMLID_21_" class="st4" points="917.1,503.2 857.3,503.2 847.6,411.6 926.8,411.6 		"/>
	</g>
</g>
<g>
	<path class="st3" d="M97.1,402.6h3.5v18c0,7.2-3.5,9.4-8.2,9.4c-1.3,0-2.8-0.3-3.7-0.6l0.5-2.8c0.7,0.3,1.8,0.5,2.9,0.5
		c3.1,0,5-1.4,5-6.7V402.6z"/>
	<path class="st3" d="M117,429.6l-0.3-2.4h-0.1c-1.1,1.5-3.2,2.9-5.9,2.9c-3.9,0-5.9-2.8-5.9-5.6c0-4.7,4.2-7.2,11.6-7.2v-0.4
		c0-1.6-0.4-4.5-4.4-4.5c-1.8,0-3.7,0.6-5,1.4l-0.8-2.3c1.6-1,3.9-1.7,6.4-1.7c5.9,0,7.4,4,7.4,7.9v7.2c0,1.7,0.1,3.3,0.3,4.6H117z
		 M116.5,419.7c-3.8-0.1-8.2,0.6-8.2,4.4c0,2.3,1.5,3.4,3.3,3.4c2.5,0,4.1-1.6,4.7-3.2c0.1-0.4,0.2-0.8,0.2-1.1V419.7z"/>
	<path class="st3" d="M126.6,410.2l3.8,10.9c0.6,1.8,1.2,3.4,1.6,5h0.1c0.4-1.6,1-3.2,1.6-5l3.8-10.9h3.7l-7.6,19.4h-3.4l-7.4-19.4
		H126.6z"/>
	<path class="st3" d="M155.1,429.6l-0.3-2.4h-0.1c-1.1,1.5-3.2,2.9-5.9,2.9c-3.9,0-5.9-2.8-5.9-5.6c0-4.7,4.2-7.2,11.6-7.2v-0.4
		c0-1.6-0.4-4.5-4.4-4.5c-1.8,0-3.7,0.6-5,1.4l-0.8-2.3c1.6-1,3.9-1.7,6.4-1.7c5.9,0,7.4,4,7.4,7.9v7.2c0,1.7,0.1,3.3,0.3,4.6H155.1
		z M154.5,419.7c-3.8-0.1-8.2,0.6-8.2,4.4c0,2.3,1.5,3.4,3.3,3.4c2.5,0,4.1-1.6,4.7-3.2c0.1-0.4,0.2-0.8,0.2-1.1V419.7z"/>
	<path class="st3" d="M163.3,425.4c1.6,1,3.8,1.8,6.2,1.8c3.6,0,5.6-1.9,5.6-4.6c0-2.5-1.4-4-5.1-5.4c-4.4-1.6-7.1-3.8-7.1-7.6
		c0-4.2,3.5-7.3,8.7-7.3c2.8,0,4.8,0.6,6,1.3l-1,2.8c-0.9-0.5-2.7-1.3-5.1-1.3c-3.7,0-5.1,2.2-5.1,4c0,2.5,1.6,3.8,5.4,5.2
		c4.6,1.8,6.9,4,6.9,7.9c0,4.2-3.1,7.8-9.4,7.8c-2.6,0-5.4-0.8-6.9-1.7L163.3,425.4z"/>
	<path class="st3" d="M197.4,428.9c-0.9,0.5-3,1.1-5.6,1.1c-5.8,0-9.6-4-9.6-9.9c0-6,4.1-10.3,10.4-10.3c2.1,0,3.9,0.5,4.9,1
		l-0.8,2.7c-0.8-0.5-2.2-0.9-4.1-0.9c-4.4,0-6.8,3.3-6.8,7.3c0,4.5,2.9,7.2,6.7,7.2c2,0,3.3-0.5,4.3-1L197.4,428.9z"/>
	<path class="st3" d="M201.5,416.3c0-2.3,0-4.2-0.2-6h3.1l0.1,3.8h0.2c0.9-2.6,3-4.2,5.4-4.2c0.4,0,0.7,0,1,0.1v3.3
		c-0.4-0.1-0.7-0.1-1.2-0.1c-2.5,0-4.2,1.9-4.7,4.5c-0.1,0.5-0.2,1-0.2,1.6v10.3h-3.5V416.3z"/>
	<path class="st3" d="M218.7,404.8c0,1.2-0.8,2.2-2.2,2.2c-1.2,0-2.1-1-2.1-2.2c0-1.2,0.9-2.2,2.2-2.2
		C217.8,402.6,218.7,403.6,218.7,404.8z M214.7,429.6v-19.4h3.5v19.4H214.7z"/>
	<path class="st3" d="M224.1,416.6c0-2.5-0.1-4.5-0.2-6.3h3.2l0.2,3.3h0.1c1.4-2.4,3.7-3.8,6.9-3.8c4.7,0,8.2,4,8.2,9.8
		c0,7-4.2,10.4-8.8,10.4c-2.6,0-4.8-1.1-6-3h-0.1v10.5h-3.5V416.6z M227.6,421.7c0,0.5,0.1,1,0.2,1.4c0.6,2.4,2.8,4.1,5.3,4.1
		c3.7,0,5.9-3,5.9-7.5c0-3.9-2-7.2-5.8-7.2c-2.4,0-4.6,1.7-5.3,4.4c-0.1,0.4-0.2,1-0.2,1.4V421.7z"/>
	<path class="st3" d="M251.1,404.7v5.6h5v2.7h-5v10.4c0,2.4,0.7,3.8,2.6,3.8c0.9,0,1.6-0.1,2-0.2l0.2,2.6c-0.7,0.3-1.8,0.5-3.1,0.5
		c-1.6,0-3-0.5-3.8-1.5c-1-1-1.4-2.8-1.4-5v-10.6h-3v-2.7h3v-4.6L251.1,404.7z"/>
</g>
<g>
	<polygon class="st28" points="80.3,401.4 147.4,401.4 147.4,401.4 80.3,401.4 	"/>
</g>
<g>
</g>
<g>
</g>
<g>
</g>
<g>
</g>
<g>
</g>
<g>
</g>
<g>
</g>
<g>
</g>
<g>
</g>
<g>
</g>
<g>
</g>
<g>
</g>
<g>
</g>
<g>
</g>
<g>
</g>
</svg>
