<?xml version="1.0" encoding="utf-8"?>
<!-- Generator: Adobe Illustrator 24.0.2, SVG Export Plug-In . SVG Version: 6.00 Build 0)  -->
<svg version="1.1" xmlns="http://www.w3.org/2000/svg" xmlns:xlink="http://www.w3.org/1999/xlink" x="0px" y="0px"
	 viewBox="0 0 3710 3710" style="enable-background:new 0 0 3710 3710;" xml:space="preserve">
<style type="text/css">
	.st0{fill:#FFFFFF;}
	.st1{fill:#F4F7FA;}
	.st2{opacity:0.3;fill:#BFC8D6;}
	.st3{clip-path:url(#SVGID_3_);}
	.st4{clip-path:url(#SVGID_6_);}
	.st5{fill:#BFC8D6;}
	.st6{fill:#D8DEE8;}
	.st7{opacity:0.48;fill:#FFFFFF;}
	.st8{fill:url(#SVGID_7_);}
	.st9{fill:url(#SVGID_8_);}
	.st10{opacity:0.74;fill:#FFFFFF;}
	.st11{fill:url(#SVGID_9_);}
	.st12{opacity:0.5;}
	.st13{fill:url(#SVGID_10_);}
	.st14{fill:url(#SVGID_11_);}
	.st15{opacity:0.3;}
	.st16{fill:url(#SVGID_12_);}
	.st17{fill:url(#SVGID_13_);}
	.st18{fill:url(#SVGID_14_);}
	.st19{fill:url(#SVGID_15_);}
	.st20{fill:url(#SVGID_16_);}
	.st21{fill:url(#SVGID_17_);}
	.st22{fill:#26264F;}
	.st23{fill:url(#SVGID_18_);}
	.st24{fill:url(#SVGID_19_);}
	.st25{fill:url(#SVGID_20_);}
	.st26{fill:url(#SVGID_21_);}
	.st27{fill:url(#SVGID_22_);}
	.st28{fill:url(#SVGID_23_);}
	.st29{fill:url(#SVGID_24_);}
	.st30{fill:url(#SVGID_25_);}
	.st31{fill:url(#SVGID_26_);}
	.st32{fill:url(#SVGID_27_);}
	.st33{opacity:0.3;fill:url(#SVGID_28_);}
	.st34{fill:url(#SVGID_29_);}
	.st35{fill:url(#SVGID_30_);}
	.st36{fill:url(#SVGID_31_);}
	.st37{opacity:0.2;}
	.st38{fill:url(#SVGID_32_);}
</style>
<g id="Background">
	<g>
		<g>
			<rect class="st0" width="3710" height="3710"/>
		</g>
	</g>
</g>
<g id="Illustration">
	<g>
		<path class="st1" d="M3179.5,1255.1c74.9-682.4-586.7-919.5-1055.7-744.8c-472.8,176.1-582.4-115.8-1247.3-32.4
			C203.2,562.3,545,1619.1,545,1619.1s107.1,918.9,234,1342.5c126.2,421.3,1334.4,268.9,1628.3,256.3
			c292.2-12.5,546.1,11.6,800.4-450.9C3461.6,2305.3,3104.8,1935.2,3179.5,1255.1z"/>
		<path class="st2" d="M2172.7,1005.7l-51.8,3.5c-5.9-23.1-13.8-45.4-23.4-66.7l43-28.8c11.7-7.9,14.7-23.8,6.7-35.6l-50.1-73.7
			c-8-11.8-24.1-15-35.8-7.2l-43.5,29.1c-16.5-16.9-34.5-32.5-53.7-46.4l23-47.1c6.2-12.7,0.8-28.2-12.1-34.5l-80.7-39.7
			c-12.9-6.4-28.5-1.2-34.7,11.5l-23.1,47.3c-22.6-6.6-46-11.2-70-13.9l-4-53c-1.1-14.2-13.6-25.1-28-24.2l-90.2,5.3
			c-14.5,0.9-25.3,13.1-24.2,27.4l4,53.2c-23.5,5.6-46.2,13-67.8,22.3l-30.4-44.4c-8.2-12-24.6-15.2-36.7-7.3l-75.5,49.6
			c-12.1,7.9-15.2,24.1-7,36.1l30.5,44.4c-17.3,16.4-33.2,34.2-47.4,53.4l-48.8-23.6c-13.2-6.4-29.1-1.1-35.5,11.8l-40,80.8
			c-6.4,12.9-0.8,28.6,12.4,35l48.5,23.3c-6.6,22.7-11.1,46.2-13.7,70.3l-53.7,3.6c-14.7,1-25.7,13.5-24.6,27.9l6.8,90.1
			c1.1,14.4,13.9,25.2,28.6,24.2l53.2-3.7c6,23.6,14,46.4,23.9,68.1l-43.8,29.2c-12.2,8.1-15.3,24.4-7,36.3l51.7,74.5
			c8.3,11.9,24.8,15,36.9,6.8l43.5-29.2c17.1,17.3,35.6,33,55.4,47.1l-22.7,46.5c-6.3,13-0.8,28.5,12.4,34.7l82.2,38.7
			c13.1,6.2,28.9,0.7,35.2-12.3l22.4-46c23.2,6.4,47.2,10.8,71.7,13.1l3.9,50.9c1.1,14.3,13.7,24.9,28.1,23.8l90.1-7.1
			c14.4-1.1,25.1-13.6,24.1-27.8l-3.8-50.7c23.7-6,46.5-13.9,68.2-23.8l28.8,41.8c8.1,11.7,24.2,14.7,36.1,6.7l73.9-50.4
			c11.8-8,14.8-24.1,6.8-35.8l-28.8-42c17.1-16.7,32.7-34.7,46.5-54.1l46.1,22.1c12.8,6.2,28.2,0.8,34.4-12l38.5-79.8
			c6.1-12.8,0.8-28.1-12-34.3l-46.2-22.3c6.3-22.5,10.6-45.8,12.8-69.6l51.4-3.6c14.1-1,24.7-13.2,23.6-27.4l-6.7-88.3
			C2199.2,1015.4,2186.8,1004.8,2172.7,1005.7z M1705.8,847c145.2-9.2,271,99.5,281.9,242.7c10.9,143.2-97.3,268-242.3,278.8
			c-145.9,10.9-273.8-97.7-284.7-242.5C1449.7,981.3,1559.8,856.3,1705.8,847z"/>
		<g>
			<g>
				<defs>
					<path id="SVGID_1_" d="M1966.9,2752.3c-156.3-210.4-87.3-535.7,36.4-591.1c64.4-28.8,116.9,27.3,179.4-11.8
						c69.3-43.3,39.1-133.6,97.1-293.7c30-82.7,84.4-232.7,189.8-259.5c104.5-26.5,155,94.7,269,72.4
						c107.8-21.1,103.7-137.4,246.8-200.2c13.3-5.8,163.8-69.7,247.3-0.4c84.8,70.4,70.4,253.4-12.9,346
						c-75.7,84.2-186,69-197.4,128.5c-12.6,65.6,117.2,105.5,110.7,174.1c-9.4,99.2-287.4,88.3-338.3,234.1
						c-29.9,85.7,52.9,128,39,243.5c-17.9,149.1-177.8,261.8-300.2,305.2C2356.3,2962.4,2102.3,2934.6,1966.9,2752.3z"/>
				</defs>
				<linearGradient id="SVGID_2_" gradientUnits="userSpaceOnUse" x1="2687.2415" y1="2182.4851" x2="5410.0903" y2="2210.4836">
					<stop  offset="0" style="stop-color:#AA80F9"/>
					<stop  offset="0.9964" style="stop-color:#6165D7"/>
				</linearGradient>
				<use xlink:href="#SVGID_1_"  style="overflow:visible;fill:url(#SVGID_2_);"/>
				<clipPath id="SVGID_3_">
					<use xlink:href="#SVGID_1_"  style="overflow:visible;"/>
				</clipPath>
				<g class="st3">
					<path class="st0" d="M2028.1,2921.6l-7.1-4.4c168.8-273.8,343.3-522.3,518.5-738.7c140.3-173.2,281.4-326.3,419.4-455.1
						c235.2-219.5,382-293.3,383.5-294l3.7,7.4c-1.4,0.7-147.5,74.2-381.9,293.1C2747.8,1931.9,2409.7,2302.7,2028.1,2921.6z"/>
					<path class="st0" d="M2937.1,1745.2c31.5-255.5,172-428.1,173.5-429.8l6.4,5.3c-1.4,1.7-140.5,172.5-171.6,425.5L2937.1,1745.2
						z"/>
					<path class="st0" d="M2513.8,2209.1c-54-275.2-39.2-453.8-17.2-555.2c23.9-110.4,60.3-154.9,61.9-156.8l6.4,5.3
						c-0.4,0.4-36.9,45.3-60.3,154.1c-21.6,100.5-36.2,277.7,17.4,550.9L2513.8,2209.1z"/>
					<path class="st0" d="M2169.7,2688.3c-200.2-447.6-125.7-726.9-124.9-729.7l8,2.2c-0.2,0.7-19.3,73.2-12.1,201.7
						c6.4,113.2,35.2,295.7,136.6,522.3L2169.7,2688.3z"/>
					<path class="st0" d="M2654.9,2168.7c-28.5-3.8-57.3-9.3-86.1-16.6l2-8.1c188.6,47.9,374.2,14.1,496.6-22.7
						c132.8-39.9,221.9-91.8,222.8-92.3l4.2,7.2c-0.9,0.5-90.9,52.9-224.6,93.1C2965.1,2160.8,2814.5,2190.1,2654.9,2168.7z"/>
					<path class="st0" d="M2280.4,2609.1c-15.4-2.1-30.9-4.7-46.6-8l1.7-8.1c198.6,41.3,376.5-18.4,490.8-75.8
						c123.9-62.2,201.6-135,202.4-135.7l5.7,6c-0.8,0.7-79.4,74.4-204.4,137.1C2623.6,2578.1,2462.4,2633.5,2280.4,2609.1z"/>
				</g>
			</g>
		</g>
		<g>
			<g>
				<defs>
					<path id="SVGID_4_" d="M1299.5,2428.6c-259.1,38.9-513.8-175-504.5-310.3c4.8-70.4,79.1-90.3,74-163.9
						c-5.6-81.5-99.5-97.3-213.4-223.9c-58.9-65.4-165.7-184-139.6-289.6c25.8-104.7,156.5-92.2,190.5-203.3
						c32.1-105.1-72.5-156.2-60.5-311.9c1.1-14.5,15.6-177.3,116-218.4c102-41.7,256.7,57.1,299.3,174.2
						c38.7,106.4-26.6,196.6,20.6,234.7c51.9,42,148.2-53.8,205.7-15.8c83.1,54.9-57.4,295.2,47.4,408.6
						c61.6,66.7,137.8,13.5,233.2,80.1c123.1,86,147.4,280.1,128.1,408.5C1668.1,2183.8,1524.1,2394.9,1299.5,2428.6z"/>
				</defs>
				<linearGradient id="SVGID_5_" gradientUnits="userSpaceOnUse" x1="1198.125" y1="1567.2526" x2="3514.0464" y2="1591.0667">
					<stop  offset="0" style="stop-color:#FF9085"/>
					<stop  offset="1" style="stop-color:#FB6FBB"/>
				</linearGradient>
				<use xlink:href="#SVGID_4_"  style="overflow:visible;fill:url(#SVGID_5_);"/>
				<clipPath id="SVGID_6_">
					<use xlink:href="#SVGID_4_"  style="overflow:visible;"/>
				</clipPath>
				<g class="st4">
					<path class="st0" d="M1477.7,2454.2l-7.2,4.2c-162.1-277.7-299.4-548.6-407.9-805.1c-86.8-205.2-155.6-401.8-204.3-584.2
						c-83.1-310.8-79.1-475.1-79.1-476.7l8.3,0.3c0,1.6-3.9,165.1,78.9,474.9C943,1353.5,1111.1,1826.3,1477.7,2454.2z"/>
					<path class="st0" d="M867.3,1098.6c-210.7-148-296.8-353.2-297.7-355.3l7.7-3.2c0.8,2,86.2,205.1,294.7,351.6L867.3,1098.6z"/>
					<path class="st0" d="M1077.4,1690.4c-268.2-81.8-418.9-178.9-498-246c-86.2-73.1-108.3-126.1-109.2-128.4l7.7-3.1
						c0.2,0.5,22.6,53.9,107.6,125.7c78.5,66.4,228,162.6,494.3,243.8L1077.4,1690.4z"/>
					<path class="st0" d="M1338.5,2219.5c-489.1-33.9-700.6-231.1-702.6-233l5.7-6c0.5,0.5,55.5,51.4,172.3,105.5
						c102.9,47.6,277.5,108,525.2,125.2L1338.5,2219.5z"/>
					<path class="st0" d="M1108.2,1546.9c-16.8,23.3-35.1,46.2-55.2,68.2l-6.1-5.6c131-143.9,188.5-323.5,213.6-448.9
						c27.2-135.9,23.4-239,23.4-240l8.3-0.3c0,1,3.9,105.1-23.5,242C1247.2,1269.5,1202.2,1416.2,1108.2,1546.9z"/>
					<path class="st0" d="M1320.6,2084.6c-9.1,12.6-18.7,25.1-28.9,37.4l-6.4-5.3c129.9-155.9,160.9-340.9,164-468.7
						c3.4-138.6-24.3-241.5-24.5-242.5l8-2.2c0.3,1,28.3,105.1,24.8,244.9C1454.7,1767.1,1427.8,1935.4,1320.6,2084.6z"/>
				</g>
			</g>
		</g>
		<g>
			<g>
				<path class="st5" d="M3223.3,3028.5l-2624.5-22.7v67.1c0,18.2,11.4,33.7,26.9,36.5l742.1,132.2c8.8,1.6,17.7,2,26.6,1.2
					l1800.2-150.7c16.1-1.3,28.5-16.9,28.5-35.6V3028.5z"/>
				<g>
					<path class="st5" d="M2257.5,2920.9L589.4,3043.7c-29.8,2.2-54.1-21.2-54.1-52.2V1749.4c0-31,24.3-56.1,54.1-56.1l59,34
						l1609-34c24.6,0,44.5,22.7,44.5,50.7v1122.9C2302,2894.9,2282.1,2919.1,2257.5,2920.9z"/>
					<path class="st0" d="M2284.1,2920.9L616,3043.7c-29.8,2.2-54.1-21.2-54.1-52.2V1749.4c0-31,24.3-56.1,54.1-56.1h1668.1
						c24.6,0,44.5,22.7,44.5,50.7v1122.9C2328.5,2894.9,2308.7,2919.1,2284.1,2920.9z"/>
					<path class="st6" d="M2232.1,2841.7L678.5,2948.4c-24.3,1.7-44-17.5-44-42.8V1818.1c0-25.3,19.7-45.9,44-46l1553.6-6.7
						c20.3-0.1,36.7,18.5,36.7,41.6v990.5C2268.8,2820.5,2252.4,2840.3,2232.1,2841.7z"/>
					<g>
						<polygon class="st0" points="1229.5,1874.1 810.2,1875.2 810.2,1835.2 1229.4,1835.4 						"/>
						<polygon class="st0" points="1426.9,1862.6 1330.1,1862.7 1330,1835.4 1426.9,1835.4 						"/>
						<polygon class="st0" points="1427,1900.2 1330.1,1900.7 1330.1,1873.4 1427,1873.1 						"/>
						<polygon class="st0" points="1909.7,1898 1533.9,1899.7 1533.9,1872.8 1909.6,1871.9 						"/>
						<polygon class="st0" points="1971.4,1933.8 1599.3,1936.6 1599.3,1909.8 1971.3,1907.8 						"/>
						<polygon class="st0" points="1971.4,1969.9 1599.4,1973.8 1599.4,1947 1971.4,1943.9 						"/>
						<polygon class="st0" points="1971.5,2006 1599.4,2010.9 1599.4,1984.2 1971.4,1980 						"/>
						<polygon class="st0" points="1427.1,1937.9 1330.2,1938.6 1330.2,1911.3 1427,1910.8 						"/>
						<polygon class="st0" points="1427.1,1975.6 1330.3,1976.6 1330.2,1949.3 1427.1,1948.4 						"/>
						<polygon class="st0" points="1427.2,2013.2 1330.3,2014.5 1330.3,1987.2 1427.1,1986.1 						"/>
						<polygon class="st0" points="1427.2,2050.9 1330.4,2052.5 1330.3,2025.1 1427.2,2023.8 						"/>
						<polygon class="st0" points="1686.8,2046.7 1448.4,2050.5 1448.3,2023.5 1686.7,2020.1 						"/>
						<polygon class="st0" points="1427.3,2088.6 1330.4,2090.4 1330.4,2063.1 1427.3,2061.4 						"/>
						<polygon class="st0" points="1427.4,2126.2 1330.5,2128.4 1330.5,2101 1427.3,2099.1 						"/>
						<polygon class="st0" points="1427.4,2163.9 1330.6,2166.3 1330.5,2139 1427.4,2136.8 						"/>
						<polygon class="st0" points="1798.5,2081.5 1534.2,2086.5 1534.2,2059.6 1798.5,2055.1 						"/>
						<polygon class="st0" points="1935.9,2115 1599.6,2122.4 1599.6,2095.7 1935.9,2089 						"/>
						<polygon class="st0" points="1936,2151.2 1599.7,2159.6 1599.6,2132.9 1935.9,2125.2 						"/>
						<polygon class="st0" points="1427.5,2201.6 1330.6,2204.2 1330.6,2176.9 1427.4,2174.4 						"/>
						<polygon class="st0" points="1427.5,2239.2 1330.7,2242.2 1330.6,2214.9 1427.5,2212.1 						"/>
						<polygon class="st0" points="1427.6,2276.9 1330.7,2280.1 1330.7,2252.8 1427.5,2249.8 						"/>
						<polygon class="st0" points="1427.6,2314.6 1330.8,2318.1 1330.7,2290.8 1427.6,2287.4 						"/>
						<polygon class="st0" points="1427.7,2352.2 1330.8,2356 1330.8,2328.7 1427.7,2325.1 						"/>
						<polygon class="st0" points="1427.8,2389.9 1330.9,2394 1330.9,2366.7 1427.7,2362.8 						"/>
						<polygon class="st0" points="1427.8,2427.6 1331,2431.9 1330.9,2404.6 1427.8,2400.5 						"/>
						<polygon class="st0" points="1427.9,2465.2 1331,2469.9 1331,2442.6 1427.8,2438.1 						"/>
						<polygon class="st0" points="1427.9,2502.9 1331.1,2507.8 1331,2480.5 1427.9,2475.8 						"/>
						<polygon class="st0" points="1428,2540.6 1331.1,2545.8 1331.1,2518.5 1428,2513.5 						"/>
						<polygon class="st0" points="1428.1,2578.2 1331.2,2583.7 1331.2,2556.4 1428,2551.1 						"/>
						<polygon class="st0" points="1428.1,2615.9 1331.3,2621.7 1331.2,2594.4 1428.1,2588.8 						"/>
						<polygon class="st0" points="1428.2,2653.6 1331.3,2659.6 1331.3,2632.3 1428.1,2626.5 						"/>
						<polygon class="st0" points="1428.2,2691.2 1331.4,2697.6 1331.3,2670.2 1428.2,2664.1 						"/>
						<polygon class="st0" points="1428.3,2728.9 1331.4,2735.5 1331.4,2708.2 1428.2,2701.8 						"/>
						<polygon class="st0" points="1428.3,2766.6 1331.5,2773.5 1331.5,2746.1 1428.3,2739.5 						"/>
						<polygon class="st0" points="1428.4,2804.2 1331.6,2811.4 1331.5,2784.1 1428.4,2777.1 						"/>
						<polygon class="st0" points="1428.5,2841.9 1331.6,2849.3 1331.6,2822 1428.4,2814.8 						"/>
						<polygon class="st0" points="1711.6,1862.1 1447.4,1862.5 1447.4,1835.5 1711.5,1835.5 						"/>
						<polygon class="st0" points="1910.8,2623.4 1535.1,2646.9 1535,2620 1910.8,2597.3 						"/>
						<polygon class="st0" points="1972.5,2655.7 1600.5,2680 1600.4,2653.2 1972.4,2629.7 						"/>
						<polygon class="st0" points="1972.5,2691.7 1600.5,2717.1 1600.5,2690.4 1972.5,2665.8 						"/>
						<polygon class="st0" points="2132.9,2716.4 1770.5,2742.2 1770.5,2715.8 2132.9,2690.8 						"/>
						<polygon class="st0" points="2132.9,2752.1 1770.6,2778.9 1770.5,2752.5 2132.9,2726.4 						"/>
						<polygon class="st0" points="2133,2787.7 1770.6,2815.6 1770.6,2789.2 2133,2762.1 						"/>
						<polygon class="st0" points="1712.7,2598.9 1448.6,2614.7 1448.5,2587.6 1712.7,2572.4 						"/>
						<polygon class="st0" points="1910.2,2224.4 1534.4,2235.9 1534.4,2209.1 1910.2,2198.3 						"/>
						<polygon class="st0" points="1971.9,2258.6 1599.9,2271.1 1599.8,2244.4 1971.8,2232.6 						"/>
						<polygon class="st0" points="1971.9,2294.7 1599.9,2308.3 1599.9,2281.5 1971.9,2268.7 						"/>
						<polygon class="st0" points="1972,2330.8 1600,2345.4 1599.9,2318.7 1971.9,2304.8 						"/>
						<polygon class="st0" points="1687.3,2378.9 1448.9,2389 1448.9,2361.9 1687.3,2352.4 						"/>
						<polygon class="st0" points="1799,2410.8 1534.7,2422.7 1534.7,2395.8 1799,2384.5 						"/>
						<polygon class="st0" points="1936.4,2440.8 1600.1,2457 1600.1,2430.2 1936.4,2414.8 						"/>
						<polygon class="st0" points="1936.5,2477 1600.2,2494.1 1600.2,2467.4 1936.4,2451 						"/>
						<polygon class="st0" points="2011.1,2509.2 1678.8,2527.1 1678.8,2500.5 2011,2483.3 						"/>
						<polygon class="st0" points="2011.1,2545.2 1678.9,2564 1678.9,2537.4 2011.1,2519.3 						"/>
						<polygon class="st0" points="1712.1,2193.7 1447.9,2201 1447.9,2173.9 1712.1,2167.1 						"/>
						<polygon class="st0" points="1229.6,1934.7 989.6,1936.4 989.6,1896.9 1229.5,1895.9 						"/>
						<polygon class="st0" points="927.5,1936.8 972.7,1936.5 972.7,1897 927.5,1897.2 						"/>
						<polygon class="st0" points="1229.7,1990.4 989.7,1993.1 989.6,1953.7 1229.6,1951.6 						"/>
						<polygon class="st0" points="927.6,1993.8 972.8,1993.3 972.8,1953.8 927.6,1954.2 						"/>
						<polygon class="st0" points="1229.8,2046.1 989.8,2049.8 989.7,2010.4 1229.7,2007.3 						"/>
						<polygon class="st0" points="927.7,2050.8 972.9,2050.1 972.9,2010.6 927.7,2011.2 						"/>
						<polygon class="st0" points="1230.4,2441.4 811.1,2460.5 811.1,2420.5 1230.3,2402.7 						"/>
						<polygon class="st0" points="1230.5,2502 990.5,2514 990.4,2474.6 1230.4,2463.2 						"/>
						<polygon class="st0" points="928.4,2517.1 973.6,2514.8 973.6,2475.3 928.4,2477.5 						"/>
						<polygon class="st0" points="1230.6,2557.7 990.6,2570.7 990.5,2531.3 1230.5,2518.9 						"/>
						<polygon class="st0" points="928.5,2574.1 973.7,2571.6 973.7,2532.1 928.5,2534.5 						"/>
						<polygon class="st0" points="1230.7,2613.4 990.7,2627.4 990.6,2588 1230.6,2574.6 						"/>
						<polygon class="st0" points="928.6,2631.1 973.8,2628.4 973.7,2588.9 928.6,2591.4 						"/>
						<polygon class="st0" points="1229.9,2102.1 810.6,2110.5 810.5,2070.5 1229.8,2063.4 						"/>
						<polygon class="st0" points="1230,2162.7 990,2168.6 989.9,2129.1 1229.9,2123.9 						"/>
						<polygon class="st0" points="927.9,2170.1 973.1,2169 973,2129.5 927.8,2130.4 						"/>
						<polygon class="st0" points="1230,2218.4 990.1,2225.3 990,2185.8 1230,2179.6 						"/>
						<polygon class="st0" points="928,2227 973.2,2225.7 973.1,2186.2 927.9,2187.4 						"/>
						<polygon class="st0" points="1230.2,2330.5 990.2,2339.4 990.2,2300 1230.2,2291.8 						"/>
						<polygon class="st0" points="928.2,2341.7 973.4,2340 973.3,2300.5 928.1,2302.1 						"/>
						<polygon class="st0" points="1230.3,2386.2 990.3,2396.1 990.3,2356.7 1230.2,2347.5 						"/>
						<polygon class="st0" points="928.3,2398.7 973.5,2396.8 973.4,2357.3 928.2,2359.1 						"/>
						<polygon class="st0" points="1230.1,2274.1 990.1,2282 990.1,2242.5 1230.1,2235.3 						"/>
						<polygon class="st0" points="928.1,2284 973.3,2282.5 973.2,2243 928,2244.4 						"/>
						<polygon class="st0" points="1230.7,2669.1 811.5,2695.4 811.4,2655.4 1230.7,2630.3 						"/>
						<polygon class="st0" points="1230.8,2729.6 990.9,2745.8 990.8,2706.3 1230.8,2690.9 						"/>
						<polygon class="st0" points="928.8,2749.9 974,2746.9 973.9,2707.4 928.7,2710.3 						"/>
						<polygon class="st0" points="1230.9,2785.3 991,2802.5 990.9,2763 1230.9,2746.6 						"/>
						<polygon class="st0" points="928.9,2806.9 974.1,2803.7 974,2764.2 928.8,2767.3 						"/>
						<polygon class="st0" points="1231,2841 991,2859.2 991,2819.7 1230.9,2802.3 						"/>
						<polygon class="st0" points="929,2863.9 974.2,2860.5 974.1,2821 928.9,2824.2 						"/>
						<polygon class="st0" points="1281.9,2837.3 1272.7,2838 1271.2,1835.4 1280.4,1835.4 						"/>
					</g>
					<path class="st0" d="M1509,1727.2c0,11.5-8.6,20.9-19.2,21c-10.6,0-19.2-9.3-19.2-20.9c0-11.6,8.6-21,19.2-21
						C1500.4,1706.3,1509,1715.7,1509,1727.2z"/>
					<path class="st7" d="M616,3043.7l1659.6-122.2l8.4-0.6c11.3-0.8,21.5-6.4,29.4-14.9c-119.4-6.5-193.6-48.9-241.5-92.7
						c-96.1-87.9-79.4-174.7-183.1-232.5c-129.2-72.1-230.9,19.3-329-70.9c-59.5-54.7-30.3-95.4-103.4-177.1
						c-81-90.5-133.8-60.1-215.2-141.5c-103-103-51.5-183.1-140.2-257c-107.6-89.7-223.7-6.7-326.1-92.7
						c-44.2-37.1-68.4-91-81.1-148.4H616c-29.8,0-54.1,25.1-54.1,56.1v1242.2C561.9,3022.5,586.2,3045.9,616,3043.7z"/>
				</g>
				<linearGradient id="SVGID_7_" gradientUnits="userSpaceOnUse" x1="598.8264" y1="3047.8223" x2="3223.2803" y2="3047.8223">
					<stop  offset="0.494" style="stop-color:#EBEFF2"/>
					<stop  offset="1" style="stop-color:#FFFFFF"/>
				</linearGradient>
				<path class="st8" d="M2362.7,2914.1L598.8,3043.3l769.1,137c8.8,1.6,17.7,2,26.6,1.2l1828.8-153.1L2390.7,2915
					C2381.4,2913.7,2372,2913.4,2362.7,2914.1z"/>
				<polygon class="st6" points="856.2,3044.5 2324.6,2935.2 2779.1,2996.7 1323.3,3113.4 				"/>
			</g>
		</g>
		<g>
			<linearGradient id="SVGID_8_" gradientUnits="userSpaceOnUse" x1="2337.4004" y1="572.9084" x2="691.4519" y2="3864.7983">
				<stop  offset="3.597120e-03" style="stop-color:#E38DDD"/>
				<stop  offset="1" style="stop-color:#9571F6"/>
			</linearGradient>
			<path class="st9" d="M2536.5,958.9L1017.7,909c-50.9-1.7-92.4,38.5-92.4,89.7v1480.2c0,51.2,41.5,91,92.4,88.8l1518.7-64.9
				c43.9-1.9,79.4-41.7,79.4-89.1V1047.1C2615.9,999.8,2580.4,960.3,2536.5,958.9z"/>
			<path class="st10" d="M1017.7,2538.3c-34.6,1.4-62.8-25.6-62.8-60.5V999.5c0-34.8,28.2-62.2,62.8-61.1l1518.7,47.9
				c29.9,0.9,54.1,27.8,54.1,60.1v1368.4c0,32.2-24.2,59.4-54.1,60.6L1017.7,2538.3z"/>
			<linearGradient id="SVGID_9_" gradientUnits="userSpaceOnUse" x1="1625.5236" y1="470.1027" x2="1911.5129" y2="1614.0636">
				<stop  offset="3.597120e-03" style="stop-color:#E38DDD"/>
				<stop  offset="1" style="stop-color:#9571F6"/>
			</linearGradient>
			<path class="st11" d="M2536.5,958.9L1017.7,909c-50.9-1.7-92.4,38.5-92.4,89.7v66.6l1690.5,43.3v-61.4
				C2615.9,999.8,2580.4,960.3,2536.5,958.9z"/>
			<path class="st0" d="M1089.6,994.5c0,16.6-13.4,29.8-30,29.3c-16.6-0.5-30-14.4-30-31.1c0-16.7,13.5-29.8,30-29.3
				C1076.2,963.9,1089.6,977.8,1089.6,994.5z"/>
			<path class="st0" d="M1194.2,997.5c0,16.6-13.3,29.6-29.7,29.2c-16.4-0.5-29.7-14.3-29.7-30.9c0-16.6,13.3-29.7,29.7-29.2
				C1180.9,967.1,1194.2,981,1194.2,997.5z"/>
			<path class="st0" d="M1297.7,1000.5c0,16.5-13.1,29.5-29.4,29c-16.3-0.5-29.5-14.2-29.5-30.7c0-16.5,13.2-29.5,29.5-29
				C1284.6,970.3,1297.7,984,1297.7,1000.5z"/>
			<g>
				<polygon class="st0" points="1835.2,1250.5 1033,1236 1033,1283.2 1835.2,1295.9 				"/>
				<polygon class="st0" points="2438.3,1261.3 2438.3,1305.4 2523.2,1306.8 2523.2,1262.8 				"/>
			</g>
			<g>
				<polygon class="st0" points="1202.6,1398.6 1033,1396.8 1033,1348.1 1202.6,1350.3 				"/>
				<polygon class="st0" points="2108.6,1408.2 1310.9,1399.7 1310.9,1351.7 2108.6,1362 				"/>
				<polygon class="st0" points="1476.2,1482.9 1310.9,1481.8 1310.9,1433.7 1476.2,1435.2 				"/>
				<polygon class="st0" points="2360.1,1489 1581.8,1483.6 1581.8,1436.2 2360.1,1443.3 				"/>
				<polygon class="st0" points="1476.2,1564.3 1310.9,1563.8 1310.9,1515.8 1476.2,1516.7 				"/>
				<polygon class="st0" points="2360.1,1567 1581.8,1564.6 1581.8,1517.2 2360.1,1521.3 				"/>
				<polygon class="st0" points="1202.6,1645.9 1033,1646 1033,1597.4 1202.6,1597.6 				"/>
				<polygon class="st0" points="2108.6,1645.3 1310.9,1645.8 1310.9,1597.8 2108.6,1599 				"/>
				<polygon class="st0" points="1476.2,1727.1 1310.9,1727.9 1310.9,1679.8 1476.2,1679.5 				"/>
				<polygon class="st0" points="2360.1,1723.1 1581.8,1726.6 1581.8,1679.2 2360.1,1677.4 				"/>
				<polygon class="st0" points="1476.2,1808.5 1310.9,1809.9 1310.9,1761.9 1476.2,1760.9 				"/>
				<polygon class="st0" points="2360.1,1801.2 1581.8,1807.6 1581.8,1760.2 2360.1,1755.5 				"/>
				<polygon class="st0" points="1476.2,1889.9 1310.9,1891.9 1310.9,1843.9 1476.2,1842.3 				"/>
				<polygon class="st0" points="2360.1,1879.2 1581.8,1888.6 1581.8,1841.2 2360.1,1833.6 				"/>
				<polygon class="st0" points="1745.6,1967.1 1584.3,1969.6 1584.3,1922.2 1745.6,1920 				"/>
				<polygon class="st0" points="2480.8,1955.4 1848.5,1965.4 1848.5,1918.6 2480.8,1910 				"/>
				<polygon class="st0" points="1202.6,2058.1 1033,2061.4 1033,2012.8 1202.6,2009.8 				"/>
				<polygon class="st0" points="2108.6,2040.3 1310.9,2056 1310.9,2008 2108.6,1994 				"/>
				<polygon class="st0" points="1476.2,2134.1 1310.9,2138 1310.9,2090 1476.2,2086.5 				"/>
				<polygon class="st0" points="2360.1,2113.4 1581.8,2131.7 1581.8,2084.2 2360.1,2067.7 				"/>
				<polygon class="st0" points="1476.2,2215.5 1310.9,2220 1310.9,2172 1476.2,2167.9 				"/>
				<polygon class="st0" points="2360.1,2191.5 1581.8,2212.7 1581.8,2165.2 2360.1,2145.8 				"/>
				<polygon class="st0" points="1202.6,2305.4 1033,2310.7 1033,2262 1202.6,2257.2 				"/>
				<polygon class="st0" points="2108.6,2277.3 1310.9,2302.1 1310.9,2254 2108.6,2231.1 				"/>
				<polygon class="st0" points="1476.2,2378.3 1310.9,2384.1 1310.9,2336.1 1476.2,2330.7 				"/>
				<polygon class="st0" points="2360.1,2347.6 1581.8,2374.7 1581.8,2327.2 2360.1,2301.9 				"/>
			</g>
			<g class="st12">
				<path class="st0" d="M1946.1,1527.9c-177.4-258.1-484.4-176-678.7-461.2c-35-51.4-58.8-103.8-75.1-152l-174.6-5.7
					c-50.9-1.7-92.4,38.5-92.4,89.7v1480.2c0,51.2,41.5,91,92.4,88.8l1463.1-62.5c-33.5-48.3-325.4-227.4-400.9-502.3
					C2011,1751.6,2053.1,1683.6,1946.1,1527.9z"/>
			</g>
		</g>
		<g>
			<linearGradient id="SVGID_10_" gradientUnits="userSpaceOnUse" x1="2153.8364" y1="1276.7654" x2="2598.4216" y2="2168.9409">
				<stop  offset="0" style="stop-color:#311944"/>
				<stop  offset="1" style="stop-color:#893976"/>
			</linearGradient>
			<path class="st13" d="M2854.9,2078.9c0-154.2-142.2-274.5-311.6-269c-96.5,3.1-180.4,46.6-232.8,110.8c0,0,0,0,0-0.1
				c-0.3,0.4-0.6,0.8-1,1.2c-0.9,1.1-1.8,2.3-2.7,3.4c-1.6,2.1-3.2,4.2-4.8,6.3c-0.9,1.2-1.8,2.5-2.7,3.8c-1.5,2.1-3,4.2-4.4,6.4
				c-0.8,1.2-1.6,2.5-2.4,3.7c-1.6,2.5-3.1,5-4.6,7.5c-0.5,0.9-1.1,1.8-1.7,2.7c-2,3.4-3.9,6.9-5.7,10.4c-0.5,0.9-0.9,1.9-1.4,2.8
				c-1.3,2.6-2.6,5.3-3.9,8c-0.6,1.3-1.2,2.6-1.8,4c-1,2.4-2.1,4.8-3,7.2c-0.6,1.4-1.1,2.8-1.7,4.2c-0.9,2.5-1.8,4.9-2.7,7.4
				c-0.5,1.3-0.9,2.6-1.4,3.9c-1,3.1-2,6.3-2.9,9.5c-0.2,0.7-0.4,1.3-0.6,2c-1.1,3.8-2,7.7-2.9,11.6c-0.3,1.1-0.5,2.3-0.7,3.5
				c-0.6,2.8-1.1,5.6-1.6,8.4c-0.2,1.4-0.5,2.9-0.7,4.3c-0.4,2.6-0.8,5.2-1.1,7.9c-0.2,1.5-0.4,3-0.5,4.5c-0.3,2.8-0.5,5.6-0.7,8.4
				c-0.1,1.3-0.2,2.6-0.3,3.9c-0.2,4.1-0.3,8.2-0.3,12.4c0,98.9,59.9,186.2,149.7,232.9c8.3,4.3,16.8,8.3,25.5,11.9
				c4.4,1.8,8.8,3.5,13.3,5.1c31.6,11.4,66,18.1,102.2,19.2l0,0l0,0h0c5,0.1,9.9,0.2,14.9,0.1c1.7,0,3.3-0.1,5-0.2
				c3.3-0.1,6.5-0.2,9.8-0.4c2-0.1,3.9-0.3,5.9-0.4c2.9-0.2,5.8-0.4,8.7-0.7c2.1-0.2,4.2-0.5,6.3-0.7c2.7-0.3,5.4-0.7,8.1-1.1
				c2.2-0.3,4.3-0.7,6.4-1c2.6-0.4,5.2-0.9,7.8-1.4c2.2-0.4,4.3-0.9,6.5-1.3c2.5-0.5,5.1-1.1,7.6-1.7c2.2-0.5,4.3-1,6.4-1.6
				c2.5-0.6,4.9-1.3,7.4-2c2.1-0.6,4.2-1.2,6.3-1.8c0.8-0.2,1.6-0.4,2.3-0.7c0,0,0,0-0.1-0.1
				C2769.8,2297.2,2854.9,2197.7,2854.9,2078.9z"/>
			<g>
				<linearGradient id="SVGID_11_" gradientUnits="userSpaceOnUse" x1="2415.2834" y1="1862.7743" x2="2847.1118" y2="2663.688">
					<stop  offset="0" style="stop-color:#FF9085"/>
					<stop  offset="1" style="stop-color:#FB6FBB"/>
				</linearGradient>
				<path class="st14" d="M2831.6,2078.9c0,153.8-141.5,274.3-310,269.4c-162.3-4.7-289.4-124.8-289.4-268.4
					c0-143.6,127.2-264.1,289.4-269.3C2690.1,1805.1,2831.6,1925.1,2831.6,2078.9z"/>
				<g>
					<path class="st0" d="M2445.5,2153.4l-120.3-61.2v-19.7l120.3-69.7v33.6l-83.2,44.5l83.2,39.2V2153.4z"/>
					<path class="st0" d="M2573.5,1975.6l-68.4,206.8l-34.4-0.4l67.9-206L2573.5,1975.6z"/>
					<path class="st0" d="M2598.9,2120.4l87.9-40.1l-87.9-45v-34.2l128.2,70.3v20.7l-128.2,62.4V2120.4z"/>
				</g>
				<g class="st15">
					<linearGradient id="SVGID_12_" gradientUnits="userSpaceOnUse" x1="2296.6936" y1="1916.0005" x2="2716.2029" y2="2757.8545">
						<stop  offset="0" style="stop-color:#FF9085"/>
						<stop  offset="1" style="stop-color:#FB6FBB"/>
					</linearGradient>
					<path class="st16" d="M2594.9,2281.3c-36.6-80.5,0.4-154.9-49-206.6c-49.6-51.9-113.2-3.4-180.7-44.9
						c-25.8-15.9-54.3-46.2-75.3-108.9c-36.3,44.6-57.8,99.6-57.8,158.9c0,143.6,127.2,263.6,289.4,268.4
						c38,1.1,74.7-4.2,108.8-14.9C2613.5,2315.8,2602.4,2298,2594.9,2281.3z"/>
				</g>
			</g>
		</g>
		<g>
			
				<linearGradient id="SVGID_13_" gradientUnits="userSpaceOnUse" x1="6951.418" y1="1431.3468" x2="6632.7192" y2="2959.3489" gradientTransform="matrix(1 0 0 1 -5492.7432 0)">
				<stop  offset="0" style="stop-color:#AA80F9"/>
				<stop  offset="0.9964" style="stop-color:#6165D7"/>
			</linearGradient>
			<path class="st17" d="M1529.8,1869.4c27.7-29.6-49-140.8-90.1-189.6c-35.9-42.6-72.8-86.3-118.1-80.8
				c-39.8,4.9-78.5,46.8-80.8,87C1234.6,1794.2,1490.4,1911.5,1529.8,1869.4z"/>
			
				<linearGradient id="SVGID_14_" gradientUnits="userSpaceOnUse" x1="-4481.6763" y1="3193.8101" x2="-4386.2319" y2="3193.8101" gradientTransform="matrix(-0.9996 2.890000e-02 2.890000e-02 0.9996 -3287.0679 -31.2392)">
				<stop  offset="0" style="stop-color:#444B8C"/>
				<stop  offset="0.9964" style="stop-color:#26264F"/>
			</linearGradient>
			<path class="st18" d="M1196.9,3012.2c-5.2,4.2-6.2,14.8-6.8,21.8c-0.3,3.1-0.4,4.6-0.1,5.7c2.5,8,18,8.8,42.2,11.3
				c38.3,3.9,49.7,6.9,52.7,1.2c2.8-5.3-4-14.1-4.8-15.1c-4.1-5.2-9.2-7.1-18.9-10.3c-18.1-5.9-30.3-9.2-34-10.2
				C1204.2,3010.6,1200.3,3009.5,1196.9,3012.2z"/>
			
				<linearGradient id="SVGID_15_" gradientUnits="userSpaceOnUse" x1="-226.0983" y1="3001.6543" x2="-191.8804" y2="3001.6543" gradientTransform="matrix(-1 0 0 1 997.4183 0)">
				<stop  offset="0" style="stop-color:#FFC444"/>
				<stop  offset="0.9964" style="stop-color:#F36F56"/>
			</linearGradient>
			<path class="st19" d="M1219.7,2977.3l3.8,43.7c-1.1,2.1-14.1,8.4-24.4,3l-9.8-42.9L1219.7,2977.3z"/>
			
				<linearGradient id="SVGID_16_" gradientUnits="userSpaceOnUse" x1="-3841.0857" y1="4493.5596" x2="-3739.6816" y2="4493.5596" gradientTransform="matrix(-0.9642 0.2651 0.2651 0.9642 -3299.8931 -308.9189)">
				<stop  offset="0" style="stop-color:#444B8C"/>
				<stop  offset="0.9964" style="stop-color:#26264F"/>
			</linearGradient>
			<path class="st20" d="M1500.7,3006.6c-6.3,6.9-7.7,19.6-2.2,25.9c5.3,6.2,13.4,1.5,36.2,2.2c24.4,0.7,30.8,6.5,47.4,1.9
				c6.7-1.9,18.5-6.3,18.3-11.1c-0.2-3.4-6.2-5.1-26.3-11.9c-28.6-9.6-28.5-10.1-34.5-11.1C1524.3,3000.1,1509,2997.5,1500.7,3006.6
				z"/>
			
				<linearGradient id="SVGID_17_" gradientUnits="userSpaceOnUse" x1="-531.1748" y1="2990.3572" x2="-488.9128" y2="2990.3572" gradientTransform="matrix(-1 0 0 1 997.4183 0)">
				<stop  offset="0" style="stop-color:#FFC444"/>
				<stop  offset="0.9964" style="stop-color:#F36F56"/>
			</linearGradient>
			<path class="st21" d="M1516.3,2966.8l12.3,40.8c-0.9,2.2-13.4,9.5-24.1,4.9l-18.2-39.6L1516.3,2966.8z"/>
			<path class="st22" d="M1407.5,2074.3c1.8,137,11.1,290.9,33.5,458.2c22.2,165.3,53.2,314.7,87.1,446.1
				c-15.6,4.2-31.3,8.4-46.9,12.6c-39.7-37-89.7-95.2-113.8-177.4c-15-51.1-10-77.3-19.5-140.1c-15.1-100-45.8-152.4-77.5-233
				c-28.5-72.4-62.1-178.8-80.2-320.9C1262.7,2104.7,1335.1,2089.5,1407.5,2074.3z"/>
			<path class="st22" d="M1266.4,2061.2c-9.6,174.2-17.4,351.6-23.4,532.2c-4.5,135.5-7.8,269.3-9.9,401.3c-16,2-31.9,3.9-47.9,5.9
				c-15.4-28.7-35.9-72.6-50-128.9c-17-68.4-13.1-109-20.6-179.8c-8.4-79.5-20.6-96.8-42.2-197c-43.8-203.4-65.7-305.2-16.8-368.4
				C1071.5,2105.9,1121.2,2054.4,1266.4,2061.2z"/>
			
				<linearGradient id="SVGID_18_" gradientUnits="userSpaceOnUse" x1="6841.0679" y1="1408.3304" x2="6522.3701" y2="2936.3296" gradientTransform="matrix(1 0 0 1 -5492.7432 0)">
				<stop  offset="0" style="stop-color:#AA80F9"/>
				<stop  offset="0.9964" style="stop-color:#6165D7"/>
			</linearGradient>
			<path class="st23" d="M1033.7,1623.5c37.4-10.5,92.2-22.8,159.3-26.6c95.7-5.4,143.6-8.1,177.5,14.7
				c78.3,52.6,17.7,174.2,49.8,475.4c4.6,43,5.6,86.3,8.9,129.5c5.5,71.4,6.7,75.3,1.8,82.5c-31.2,45.4-147.4-23.1-317.8,4
				c-95.3,15.1-138.6,50-164.7,24.9c-30.5-29.3-4.3-108.2,18.2-176.2c25.8-78,41.8-79,56.4-137.7c15.3-61.4,6.1-93,3.7-189.8
				C1025.6,1777.8,1025.8,1708.9,1033.7,1623.5z"/>
			<g>
				
					<linearGradient id="SVGID_19_" gradientUnits="userSpaceOnUse" x1="6566.9897" y1="2715.1309" x2="6687.9429" y2="2140.6057" gradientTransform="matrix(1 0 0 1 -5492.7432 0)">
					<stop  offset="0" style="stop-color:#AA80F9"/>
					<stop  offset="0.9964" style="stop-color:#6165D7"/>
				</linearGradient>
				<path class="st24" d="M1265.4,2189c-44.5-3.5-73.4,21.7-111.9,2.1c-52.7-26.9-69.7-110.6-66.3-169.9
					c5.1-90,56.5-113.8,47.6-171.9c-4.8-31.5-27.3-73.2-107.9-115.9c-1.1,35.9-0.9,66.5-0.3,90.9c2.4,96.8,11.6,128.4-3.7,189.8
					c-14.7,58.7-30.6,59.7-56.4,137.7c-22.5,67.9-48.6,146.8-18.2,176.2c26.1,25.2,69.4-9.7,164.7-24.9
					c146.8-23.3,253.4,24.2,300,8.8C1356.8,2218.6,1305.7,2192.1,1265.4,2189z"/>
			</g>
			
				<linearGradient id="SVGID_20_" gradientUnits="userSpaceOnUse" x1="6622.7476" y1="1362.7953" x2="6304.0493" y2="2890.7952" gradientTransform="matrix(1 0 0 1 -5492.7432 0)">
				<stop  offset="0" style="stop-color:#AA80F9"/>
				<stop  offset="0.9964" style="stop-color:#6165D7"/>
			</linearGradient>
			<path class="st25" d="M1094.5,1629.7c-31.8-26.1-95.8,3.4-112.9,11.4c-95.3,44.1-180.9,162.9-159.7,288.5
				c3.2,18.8,17.9,106.9,92.5,149.6c67.3,38.5,158.2,28.6,231-25.9c10-8.8,19.9-17.7,29.9-26.5c9.8-10.6,19.6-21.2,29.4-31.7
				c-15.4-12.8-41.5-31.3-78.3-43.1c-48.4-15.6-83.7,12.4-106.1-8.9c-15.5-14.7-15.5-40.7-11.7-56.4c7.7-31.7,35.7-40.7,59-63.2
				C1122.4,1770.4,1132.5,1661,1094.5,1629.7z"/>
			<g>
				
					<linearGradient id="SVGID_21_" gradientUnits="userSpaceOnUse" x1="6894.4541" y1="2215.8726" x2="6842.8828" y2="2069.7539" gradientTransform="matrix(1 0 0 1 -5492.7432 0)">
					<stop  offset="0" style="stop-color:#311944"/>
					<stop  offset="1" style="stop-color:#893976"/>
				</linearGradient>
				<polygon class="st26" points="1551.5,2039.6 1125.2,2033.3 1238.6,2088 1552.6,2067.4 				"/>
				
					<linearGradient id="SVGID_22_" gradientUnits="userSpaceOnUse" x1="6669.1626" y1="2004.1689" x2="6688.0718" y2="2134.8164" gradientTransform="matrix(1 0 0 1 -5492.7432 0)">
					<stop  offset="0" style="stop-color:#311944"/>
					<stop  offset="1" style="stop-color:#893976"/>
				</linearGradient>
				<path class="st27" d="M1110.2,2044.6L1110.2,2044.6c0,8,5,15.1,12.5,17.8l136.2,53.4l0.6-37l-134.3-45.5
					C1117.7,2031.1,1110.2,2036.7,1110.2,2044.6z"/>
			</g>
			
				<linearGradient id="SVGID_23_" gradientUnits="userSpaceOnUse" x1="-284.9815" y1="2024.6769" x2="-178.1102" y2="2024.6769" gradientTransform="matrix(-1 0 0 1 997.4183 0)">
				<stop  offset="0" style="stop-color:#FFC444"/>
				<stop  offset="0.9964" style="stop-color:#F36F56"/>
			</linearGradient>
			<path class="st28" d="M1175.8,2019.4c-2.6-0.6,12.7-31.2,24.8-27.7c12.1,3.5,71,37.7,76.4,51.8c5.4,14.1,5.4,14.1,5.4,14.1
				s-25.7,2-41.7-3.4C1224.8,2048.9,1197.1,2024.1,1175.8,2019.4z"/>
			<g>
				
					<linearGradient id="SVGID_24_" gradientUnits="userSpaceOnUse" x1="-204.5082" y1="1563.9336" x2="-208.2958" y2="1827.1871" gradientTransform="matrix(-1 0 0 1 997.4183 0)">
					<stop  offset="0" style="stop-color:#FFC444"/>
					<stop  offset="0.9964" style="stop-color:#F36F56"/>
				</linearGradient>
				<path class="st29" d="M1200.2,1492.3c0.2,28.4-2.9,50.9-5.9,66.3c-3.4,17.7-5.9,22.2-9.1,25.9c-4.7,5.6-11.9,10.2-52.6,20.3
					c-22.1,5.5-25,5.3-25.5,7.5c-2.4,10.7,58,47.2,120.3,38.4c38.2-5.4,72.9-27.2,70.7-38.6c-2.1-11.5-40.3-5.3-51.6-26.1
					c-7.9-14.5,1-35,11.4-52.1C1247.8,1515,1210.3,1511.3,1200.2,1492.3z"/>
				<g>
					<path class="st22" d="M1271,1503.5c9-12,9.6-32.8-0.8-46c-8.9-11.4-23-13-31.4-14c-24.4-2.8-55.1,7.4-65.8,29.8
						c-6.3,13.3,7.4,40.9,9.5,45.9c2.4,5.6,6.8,7.5,10.9,11.8c5.7,5.9,14.5,15.3,28.9,30.9c1.1-4.6,2.8-10.3,5.5-16.5
						c1-2.4,5.2-11.7,11.6-19.4C1252.1,1510.4,1262.4,1514.9,1271,1503.5z"/>
					
						<linearGradient id="SVGID_25_" gradientUnits="userSpaceOnUse" x1="-234.1551" y1="1505.0017" x2="-219.6856" y2="1645.4949" gradientTransform="matrix(-1 0 0 1 997.4183 0)">
						<stop  offset="0" style="stop-color:#FFC444"/>
						<stop  offset="0.9964" style="stop-color:#F36F56"/>
					</linearGradient>
					<path class="st30" d="M1201.7,1548.7c0,0,16,26.3,47.9,24.2c28.6-1.9,32.7-65.9,14.5-79.5c-6.1-4.5-18.3-6.4-28.2-3.6
						c-5.9,1.6-7.8,4.1-17.5,6.6c-8.9,2.3-11.4,1.3-14.1,3.6c-3.3,2.8-5.8,9.7-0.2,28.5c-5.5-5.5-12-7.6-16.6-5.4
						c-0.7,0.4-2.7,1.7-3.8,3.7C1179.8,1534,1186.5,1543.3,1201.7,1548.7z"/>
					<path class="st22" d="M1203.2,1496.1c1.4,1-2.8,6.2-3.1,13.4c-0.6,14.1,13.7,31.1,28.3,32.5c8.6,0.8,11-4.3,25.2-5.9
						c8.8-0.9,16.2,0.2,20.8,1.2c4.5,15.5,0.3,30.9-10.1,38.1c-11.1,7.7-25.4,3-31.3,1.1c-4-1.3-16.7-5.5-23.4-17.2
						c-6.9-12.2-0.1-19.5-8.1-27.8c-4-4.2-9.3-6-14.4-14c-1.4-2.2-2.3-4.1-2.9-5.4C1191.4,1504.4,1201.2,1494.6,1203.2,1496.1z"/>
					<path class="st0" d="M1248.3,1550.2c0,0,6.2-3.2,16.8-2.6c0.5,0,1.1-0.1,1.2-0.4c0.2-1-6.6-5.5-12.9-3.8
						c-4.5,1.3-8,5.5-7.4,6.6C1246.3,1550.5,1247.3,1550.4,1248.3,1550.2z"/>
				</g>
			</g>
			<g>
				<g>
					
						<linearGradient id="SVGID_26_" gradientUnits="userSpaceOnUse" x1="7043.8447" y1="2015.6117" x2="6943.2993" y2="1872.8375" gradientTransform="matrix(1 0 0 1 -5492.7432 0)">
						<stop  offset="0" style="stop-color:#444B8C"/>
						<stop  offset="0.9964" style="stop-color:#26264F"/>
					</linearGradient>
					<path class="st31" d="M1270.8,1819l-30.1,273.6c-1,9.4,12.2,23.5,21.7,23.1l440.8-27.1c7.2-0.3,13.3-5.7,14.5-12.8l55.3-264.3
						c1.7-9.6-15.6-19.5-25.4-19.3l-462,13C1278,1805.5,1271.7,1811.4,1270.8,1819z"/>
					
						<linearGradient id="SVGID_27_" gradientUnits="userSpaceOnUse" x1="6850.981" y1="2251.9006" x2="7071.019" y2="1804.9479" gradientTransform="matrix(1 0 0 1 -5492.7432 0)">
						<stop  offset="0" style="stop-color:#311944"/>
						<stop  offset="1" style="stop-color:#893976"/>
					</linearGradient>
					<path class="st32" d="M1280.9,1827l-30.1,273.6c-1,9.4,6.6,17.6,16.1,17.1l446.4-21.1c7.2-0.3,13.3-5.7,14.5-12.8l45.6-265.5
						c1.7-9.6-5.9-18.3-15.7-18.1l-462,13C1288.1,1813.5,1281.7,1819.3,1280.9,1827z"/>
				</g>
				
					<linearGradient id="SVGID_28_" gradientUnits="userSpaceOnUse" x1="6743.4941" y1="1965.0315" x2="7226.8877" y2="1965.0315" gradientTransform="matrix(1 0 0 1 -5492.7432 0)">
					<stop  offset="0" style="stop-color:#311944"/>
					<stop  offset="1" style="stop-color:#893976"/>
				</linearGradient>
				<path class="st33" d="M1543,2032.5c-39-16.5-25.2-48-71.3-87.3c-60.7-51.8-122.6-29.3-144.3-69.5c-6.7-12.5-10-32,1.8-63.4
					l-33.5,0.9c-7.7,0.2-14.1,6.1-14.9,13.8l-30.1,273.6c-1,9.4,6.6,17.6,16.1,17.1l446.4-21.1c7.2-0.3,13.3-5.7,14.5-12.8l6.3-36.6
					c-13.5-7.5-29.7-14.4-48.6-18.2C1620,2015.6,1587.9,2051.5,1543,2032.5z"/>
			</g>
			
				<linearGradient id="SVGID_29_" gradientUnits="userSpaceOnUse" x1="-744.2354" y1="2079.3442" x2="-672.137" y2="2079.3442" gradientTransform="matrix(-1 0 0 1 997.4183 0)">
				<stop  offset="0" style="stop-color:#FFC444"/>
				<stop  offset="0.9964" style="stop-color:#F36F56"/>
			</linearGradient>
			<path class="st34" d="M1741.5,2058.3c0.7-2.2-0.8-4.5-3.1-4.6c-9.4-0.5-31.3-0.7-43.4,6.7c-15.7,9.6-36,27.2-18.9,36l16,8.3
				c0.7,0.4,1.5,0.5,2.3,0.3c5.7-1.2,29.5-6.5,32.1-7.9C1728.9,2096,1738,2069,1741.5,2058.3z"/>
		</g>
		<g>
			<linearGradient id="SVGID_30_" gradientUnits="userSpaceOnUse" x1="1920.1965" y1="-163.4422" x2="2653.2473" y2="1307.6147">
				<stop  offset="0" style="stop-color:#FFC444"/>
				<stop  offset="0.9964" style="stop-color:#F36F56"/>
			</linearGradient>
			<path class="st35" d="M3076.1,1159.1c0-254.2-234.5-452.7-513.8-443.6c-159,5.2-297.4,76.9-383.8,182.7c0,0,0-0.1,0-0.1
				c-0.5,0.7-1,1.3-1.6,2c-1.5,1.9-2.9,3.7-4.4,5.6c-2.7,3.4-5.3,6.9-7.9,10.3c-1.5,2.1-3,4.1-4.5,6.2c-2.5,3.5-4.9,7-7.2,10.5
				c-1.3,2-2.7,4-4,6.1c-2.6,4.1-5.2,8.2-7.6,12.4c-0.9,1.5-1.8,3-2.7,4.5c-3.3,5.7-6.4,11.4-9.4,17.2c-0.8,1.5-1.5,3.1-2.3,4.6
				c-2.2,4.3-4.3,8.7-6.4,13.1c-1,2.2-1.9,4.4-2.9,6.5c-1.7,3.9-3.4,7.8-5,11.8c-0.9,2.3-1.8,4.6-2.7,6.9c-1.6,4.1-3,8.2-4.5,12.3
				c-0.7,2.2-1.5,4.3-2.2,6.5c-1.7,5.2-3.3,10.4-4.8,15.7c-0.3,1.1-0.7,2.2-1,3.3c-1.7,6.3-3.3,12.7-4.8,19.2
				c-0.4,1.9-0.8,3.8-1.2,5.7c-1,4.6-1.9,9.3-2.7,13.9c-0.4,2.4-0.8,4.8-1.1,7.2c-0.7,4.3-1.3,8.7-1.8,13c-0.3,2.4-0.6,4.9-0.8,7.3
				c-0.5,4.6-0.8,9.2-1.1,13.9c-0.1,2.2-0.3,4.3-0.4,6.5c-0.3,6.8-0.6,13.6-0.6,20.4c0,163.1,98.8,307,246.9,384.1
				c13.6,7.1,27.7,13.6,42.1,19.5c7.2,3,14.6,5.8,22,8.5c52.1,18.7,108.9,29.8,168.6,31.6l0,0l0,0c0,0,0,0,0,0
				c8.2,0.2,16.4,0.3,24.5,0.2c2.7,0,5.5-0.2,8.2-0.3c5.4-0.2,10.8-0.3,16.1-0.6c3.3-0.2,6.5-0.5,9.8-0.7c4.8-0.4,9.6-0.7,14.3-1.2
				c3.5-0.4,6.9-0.8,10.4-1.2c4.5-0.5,9-1.1,13.4-1.7c3.5-0.5,7.1-1.1,10.6-1.7c4.3-0.7,8.6-1.5,12.9-2.3c3.6-0.7,7.1-1.4,10.7-2.2
				c4.2-0.9,8.3-1.8,12.5-2.8c3.5-0.8,7.1-1.7,10.6-2.6c4.1-1.1,8.1-2.2,12.2-3.3c3.5-1,7-2,10.4-3c1.3-0.4,2.6-0.7,3.8-1.1
				c0,0-0.1-0.1-0.1-0.1C2935.7,1519.1,3076.1,1355.1,3076.1,1159.1z"/>
			<linearGradient id="SVGID_31_" gradientUnits="userSpaceOnUse" x1="2351.2815" y1="802.7942" x2="3063.2983" y2="2123.3748">
				<stop  offset="0" style="stop-color:#FFC444"/>
				<stop  offset="0.9964" style="stop-color:#F36F56"/>
			</linearGradient>
			<path class="st36" d="M3037.7,1159.1c0,253.6-233.3,452.3-511.2,444.2c-267.5-7.8-477.2-205.8-477.2-442.5
				c0-236.7,209.7-435.4,477.2-444.1C2804.4,707.6,3037.7,905.6,3037.7,1159.1z"/>
			<g>
				<path class="st0" d="M2331.1,1394.9c-16.3-0.3-30.5-2.3-42.6-6.1v-62.6c12.4,3.4,23.7,5.1,34,5.2c15.9,0.2,27.3-4.8,34.2-15.1
					c6.9-10.3,10.3-26.4,10.3-48.4V933.4l73.4-1.7v336.3c0,42-9.3,73.8-27.8,95.5C2394.1,1385,2366.9,1395.5,2331.1,1394.9z"/>
				<path class="st0" d="M2798.5,1249.5c0,39-14,69.7-42,91.8c-27.8,22-66.3,32.6-115.3,31.9c-44.7-0.7-84-9.8-118-27.2v-83.2
					c27.9,12.9,51.6,22,71.1,27.4c19.6,5.4,37.5,8.2,53.8,8.3c19.6,0.2,34.7-3.5,45.3-11c10.6-7.5,15.9-18.9,15.9-33.9
					c0-8.4-2.3-15.9-7-22.5c-4.7-6.6-11.5-12.9-20.5-18.9c-9-6-27.2-15.7-54.7-28.9c-25.6-12.2-44.7-23.8-57.4-35
					c-12.7-11.1-22.8-24.1-30.3-38.9c-7.5-14.8-11.3-32.1-11.3-51.9c0-37.4,12.4-67,37.2-88.9c25-22,59.7-33.5,104.2-34.6
					c22-0.5,43.1,1.7,63.3,6.5c20.2,4.9,41.4,11.9,63.7,21.1l-29.5,71.7c-22.9-9.1-41.8-15.4-56.7-18.9c-14.8-3.5-29.4-5.1-43.7-4.9
					c-16.9,0.3-29.9,4.5-38.9,12.6c-9,8.1-13.5,18.5-13.5,31.4c0,8,1.8,14.9,5.4,20.8c3.6,5.9,9.4,11.6,17.4,17
					c8,5.5,26.9,15.3,56.8,29.5c39.8,19,67.3,38.1,82.2,57.4C2791,1197.5,2798.5,1221.3,2798.5,1249.5z"/>
			</g>
			<g class="st37">
				<linearGradient id="SVGID_32_" gradientUnits="userSpaceOnUse" x1="2155.7456" y1="890.5556" x2="2847.45" y2="2278.6404">
					<stop  offset="0" style="stop-color:#FFC444"/>
					<stop  offset="0.9964" style="stop-color:#F36F56"/>
				</linearGradient>
				<path class="st38" d="M2647.4,1493c-60.3-132.8,0.7-255.4-80.8-340.6c-81.8-85.5-186.7-5.6-297.9-74
					c-42.5-26.2-89.5-76.3-124.2-179.5c-59.9,73.5-95.2,164.2-95.2,262c0,236.7,209.7,434.7,477.2,442.5
					c62.7,1.8,123.2-6.9,179.4-24.6C2678.2,1549.8,2659.9,1520.5,2647.4,1493z"/>
			</g>
		</g>
	</g>
	<g>
	</g>
	<g>
	</g>
	<g>
	</g>
	<g>
	</g>
	<g>
	</g>
	<g>
	</g>
	<g>
	</g>
	<g>
	</g>
	<g>
	</g>
	<g>
	</g>
	<g>
	</g>
	<g>
	</g>
	<g>
	</g>
	<g>
	</g>
	<g>
	</g>
</g>
</svg>
