<svg height="100%" width="100%" id="svg" viewBox="0 0 1440 600" xmlns="http://www.w3.org/2000/svg" class="transition duration-300 ease-in-out delay-150"><path d="M 0,600 C 0,600 0,200 0,200 C 55.83376495252189,174.67155012948575 111.66752990504378,149.34310025897153 163,175 C 214.33247009495622,200.65689974102847 261.1636453323468,277.2991490935997 317,271 C 372.8363546676532,264.7008509064003 437.67788876556915,175.46030336662963 498,162 C 558.3221112344308,148.53969663337037 614.1247996053767,210.85963743988162 666,209 C 717.8752003946233,207.14036256011838 765.8229128129241,141.1011468738439 809,144 C 852.1770871870759,146.8988531261561 890.5835491429276,218.73577506474288 944,219 C 997.4164508570724,219.26422493525712 1065.8428906153658,147.95575286718463 1127,147 C 1188.1571093846342,146.04424713281537 1242.0448883956099,215.44121346651866 1293,236 C 1343.9551116043901,256.55878653348134 1391.9775558021952,228.27939326674067 1440,200 C 1440,200 1440,600 1440,600 Z" stroke="none" stroke-width="0" fill="#0693e388" class="transition-all duration-300 ease-in-out delay-150"></path><path d="M 0,600 C 0,600 0,400 0,400 C 47.573165618448655,408.7117523739055 95.14633123689731,417.423504747811 146,409 C 196.8536687631027,400.576495252189 250.9878406708595,375.0177333826613 301,353 C 351.0121593291405,330.9822666173387 396.9023060796646,312.505561721544 452,341 C 507.0976939203354,369.494438278456 571.4029350104821,444.96001973116284 627,450 C 682.5970649895179,455.03998026883716 729.4859538784068,389.65435935380447 778,369 C 826.5140461215932,348.34564064619553 876.6532494758909,372.4225428536194 930,395 C 983.3467505241091,417.5774571463806 1039.9010482180295,438.65546923171786 1096,431 C 1152.0989517819705,423.34453076828214 1207.7425576519918,386.95558021950916 1265,377 C 1322.2574423480082,367.04441978049084 1381.128721174004,383.52220989024545 1440,400 C 1440,400 1440,600 1440,600 Z" stroke="none" stroke-width="0" fill="#0693e3ff" class="transition-all duration-300 ease-in-out delay-150"></path></svg>