<?xml version="1.0" encoding="utf-8"?>
<!-- Generator: Adobe Illustrator 24.0.2, SVG Export Plug-In . SVG Version: 6.00 Build 0)  -->
<svg version="1.1" id="Capa_1" xmlns="http://www.w3.org/2000/svg" xmlns:xlink="http://www.w3.org/1999/xlink" x="0px" y="0px"
	 viewBox="0 0 471 563" style="enable-background:new 0 0 471 563;" xml:space="preserve">
<style type="text/css">
	.st0{opacity:0.64;fill:#FF4200;enable-background:new    ;}
	.st1{fill:#282323;stroke:#000000;stroke-width:4;stroke-linecap:round;stroke-linejoin:round;stroke-miterlimit:10;}
	.st2{fill:#442C2A;}
	.st3{opacity:0.37;fill:#442C2A;enable-background:new    ;}
	.st4{fill:none;stroke:#000000;stroke-width:4;stroke-linecap:round;stroke-linejoin:round;stroke-miterlimit:10;}
	.st5{fill:#151E28;}
	.st6{fill:#2A3749;}
	.st7{opacity:0.67;fill:#151E28;enable-background:new    ;}
	.st8{fill:#9B2121;}
	.st9{fill:#F1534D;}
	.st10{opacity:0.24;}
	.st11{fill:#F46262;}
	.st12{fill:#FFC897;}
	.st13{fill:#E5A973;}
	.st14{fill:#607691;}
	.st15{fill:#B5B5B5;}
	.st16{opacity:0.21;fill:#7E7E7E;enable-background:new    ;}
	.st17{opacity:0.66;fill:#B5B5B5;enable-background:new    ;}
	.st18{fill:none;stroke:#000000;stroke-width:6;stroke-linecap:round;stroke-linejoin:round;stroke-miterlimit:10;}
	.st19{fill:#7E7E7E;}
	.st20{fill:#231A17;}
	.st21{opacity:0.34;}
	.st22{fill:none;stroke:#000000;stroke-width:3;stroke-linecap:round;stroke-linejoin:round;stroke-miterlimit:10;}
	.st23{fill:none;stroke:#000000;stroke-width:2;stroke-linecap:round;stroke-linejoin:round;stroke-miterlimit:10;}
</style>
<g id="XMLID_1207_">
	<ellipse id="XMLID_1193_" class="st0" cx="236" cy="518.3" rx="235.1" ry="47.3"/>
	<g id="XMLID_43_">
		<path id="XMLID_1211_" class="st1" d="M123.3,510.7c3.3-10.7,13.4-16.4,29.8-21.2c10.4-3,23.6-4.4,44.3-8.6c10.1-2,17.2-6,17.2-6
			v11.5c0,0-68.5,13.5-79.2,31.2c-5.2,8.7-3.6,30,20.9,32.2c-7.5,1.1-19.8-0.8-26.4-7.5C121.7,534,119.5,522.9,123.3,510.7z"/>
		<path id="XMLID_1210_" class="st2" d="M214.6,486.4c0,0-41,7.6-62.9,17c-19.2,8.3-18.6,16.9-19.1,25.7
			c-0.3,5.1,3.3,17.7,17.9,19.9c17.4,2.6,37.9-0.2,64.1-16.9C214.6,491.2,214.6,486.4,214.6,486.4z"/>
		<path id="XMLID_53_" class="st3" d="M132.6,529.1c0.4-7.1,0.1-14.1,10.1-20.9c-0.4,2.5-0.5,4.9-0.6,7.4c-0.3,5.1,12-1.5,26.6,0.6
			c15.2,2.3,24.2,19.7,45.9,8c0,2.5,0,5.1,0,7.8c-26.2,16.7-46.7,19.4-64.1,16.9C135.9,546.8,132.3,534.1,132.6,529.1z"/>
		<path id="XMLID_47_" class="st4" d="M214.6,486.4c0,0-41,7.6-62.9,17c-19.2,8.3-18.6,16.9-19.1,25.7c-0.3,5.1,3.3,17.7,17.9,19.9
			c17.4,2.6,37.9-0.2,64.1-16.9C214.6,491.2,214.6,486.4,214.6,486.4z"/>
		<path id="XMLID_46_" class="st4" d="M176.6,509.9c-3.3,1.8-2.5,19.3,5.5,21.7"/>
		<path id="XMLID_45_" class="st4" d="M189.1,508.6c-3.4,4.8-1,16.1,5.1,18.9"/>
		<path id="XMLID_44_" class="st4" d="M200.6,504.6c-3.4,4.8-1,16.1,5.1,18.9"/>
	</g>
	<path id="XMLID_77_" class="st5" d="M318.6,452.8c-21.6,15-52.3,23.6-84.4,23.6c-32,0-62.8-8.6-84.4-23.6
		c-9.9-6.9-26.5-21.3-26.5-40.5s16.6-33.6,26.5-40.5c21.6-15,52.3-23.6,84.4-23.6c32,0,62.8,8.6,84.4,23.6
		c9.9,6.9,26.5,21.3,26.5,40.5S328.5,445.9,318.6,452.8z"/>
	<path id="XMLID_76_" class="st6" d="M417.5,428.3c-0.4,2-0.8,3.9-1.4,5.9c-15.6,56.9-90.8,100.1-181.3,100.1
		c-90.7,0-166.1-43.4-181.4-100.5c-0.4-1.6-0.8-3.2-1.1-4.8c-0.4-3-0.3-6,0.3-9c3.7-16.8,24.1-26.5,45.6-21.7
		c14.1,3.1,25.1,11.8,30,22.1c0.5,2.2,1.3,4.4,2.2,6.5c5.2,12,15.6,21,22.6,26c20.9,15,50.8,23.6,81.8,23.6
		c31.1,0,60.9-8.6,81.8-23.6c7.1-5.1,17.6-14.2,22.7-26.2c0.8-1.9,1.5-4,2-6c4.8-10.4,15.9-19.1,30.1-22.3
		c21.5-4.8,41.9,5,45.6,21.7C417.7,422.7,417.8,425.5,417.5,428.3z"/>
	<path id="XMLID_1209_" class="st7" d="M417,419.9c-0.1-0.5-0.2-0.9-0.4-1.4c-0.3,1.6-0.7,3.3-1.2,4.9
		c-15.4,56.9-90.7,100.1-181.1,100.1c-90.7,0-166.1-43.4-181.4-100.5c-0.2-0.6-0.3-1.2-0.5-1.9c-0.4,2.6-0.5,5.2-0.1,7.7
		c0.3,1.6,0.7,3.2,1.1,4.8c15.3,57.1,90.7,100.5,181.4,100.5c90.5,0,165.7-43.2,181.3-100.1c0.5-1.9,1-3.9,1.4-5.9
		C417.8,425.5,417.7,422.7,417,419.9z"/>
	<path id="XMLID_56_" class="st4" d="M417.5,428.3c-0.4,2-0.8,3.9-1.4,5.9c-15.6,56.9-90.8,100.1-181.3,100.1
		c-90.7,0-166.1-43.4-181.4-100.5c-0.4-1.6-0.8-3.2-1.1-4.8c-0.4-3-0.3-6,0.3-9c3.7-16.8,24.1-26.5,45.6-21.7
		c14.1,3.1,25.1,11.8,30,22.1c0.5,2.2,1.3,4.4,2.2,6.5c5.2,12,15.6,21,22.6,26c20.9,15,50.8,23.6,81.8,23.6
		c31.1,0,60.9-8.6,81.8-23.6c7.1-5.1,17.6-14.2,22.7-26.2c0.8-1.9,1.5-4,2-6c4.8-10.4,15.9-19.1,30.1-22.3
		c21.5-4.8,41.9,5,45.6,21.7C417.7,422.7,417.8,425.5,417.5,428.3z"/>
	<ellipse id="XMLID_75_" class="st8" cx="236" cy="415.3" rx="90.1" ry="30.6"/>
	<ellipse id="XMLID_31_" class="st4" cx="236" cy="415.3" rx="90.1" ry="30.6"/>
	<g id="XMLID_89_">
		<path id="XMLID_69_" class="st9" d="M338.6,348.5H131c-15.9,0-28.2-13.9-26.2-29.7l9.2-73.5c2.6-21,20.4-36.7,41.6-36.7h158.6
			c21.1,0,38.9,15.7,41.6,36.7l9.2,73.5C366.8,334.6,354.5,348.5,338.6,348.5z"/>
		<path id="XMLID_24_" class="st4" d="M338.6,348.5H131c-15.9,0-28.2-13.9-26.2-29.7l9.2-73.5c2.6-21,20.4-36.7,41.6-36.7h158.6
			c21.1,0,38.9,15.7,41.6,36.7l9.2,73.5C366.8,334.6,354.5,348.5,338.6,348.5z"/>
		<path id="XMLID_90_" class="st4" d="M158.8,270.7"/>
		<g id="XMLID_1191_">
			<line id="XMLID_1189_" class="st4" x1="153.5" y1="270.7" x2="151.5" y2="295.8"/>
			<line id="XMLID_1192_" class="st4" x1="317.6" y1="270.7" x2="319.6" y2="295.8"/>
		</g>
	</g>
	<g id="XMLID_1194_">
		<path id="XMLID_1202_" class="st9" d="M338.6,348.5H131c-15.9,0-28.2-13.9-26.2-29.7l9.2-73.5c2.6-21,20.4-36.7,41.6-36.7h158.6
			c21.1,0,38.9,15.7,41.6,36.7l9.2,73.5C366.8,334.6,354.5,348.5,338.6,348.5z"/>
		<g id="XMLID_4_" class="st10">
			<path id="XMLID_1208_" class="st8" d="M113.9,253.1c2.6-21,20.4-36.7,41.6-36.7h158.6c21.1,0,38.9,15.7,41.6,36.7l9.1,72.9
				c0.3-2.3,0.4-4.7,0.1-7.2l-9.2-73.5c-2.6-21-20.4-36.7-41.6-36.7H155.5c-21.1,0-38.9,15.7-41.6,36.7l-9.2,73.5
				c-0.3,2.4-0.3,4.8,0.1,7.2L113.9,253.1z"/>
			<path id="XMLID_8_" class="st8" d="M164.7,216.4c0,0,12.3,2.2,13.3,9c0.8,5.5,0.7,9.1,2.8,11.3s7,6.7,16.9,6.7
				c-5.5-5.5-5.6-24.8-7.1-24.8c-1.4,0-5-9.6-5-9.6l-4.8-2.2C180.9,206.8,163.2,209,164.7,216.4z"/>
			<path id="XMLID_10_" class="st8" d="M296.1,216.4c0,0-12.3,2.2-13.3,9c-0.8,5.5-0.7,9.1-2.8,11.3c-2.1,2.1-7,6.7-16.9,6.7
				c5.5-5.5,5.6-24.8,7.1-24.8c1.4,0,5-9.6,5-9.6l4.8-2.2C279.9,206.8,297.6,209,296.1,216.4z"/>
		</g>
		<path id="XMLID_1201_" class="st4" d="M338.6,348.5H131c-15.9,0-28.2-13.9-26.2-29.7l9.2-73.5c2.6-21,20.4-36.7,41.6-36.7h158.6
			c21.1,0,38.9,15.7,41.6,36.7l9.2,73.5C366.8,334.6,354.5,348.5,338.6,348.5z"/>
		<path id="XMLID_1200_" class="st4" d="M158.8,270.7"/>
		<g id="XMLID_1195_">
			<line id="XMLID_1199_" class="st4" x1="153.5" y1="270.7" x2="151.5" y2="295.8"/>
			<line id="XMLID_1196_" class="st4" x1="317.6" y1="270.7" x2="319.6" y2="295.8"/>
		</g>
	</g>
	<g id="XMLID_78_">
		<path id="XMLID_80_" class="st8" d="M208.1,166.8l-32.9-1.7l-15.4,1.7c0,0-10.3,7.7-10.3,9.8c0,2.1,1,19.2,1,19.2
			s24.3,3.3,26.9,5.8s18,16.9,18,16.9l14.9-5.8l7.8-20.8L208.1,166.8z"/>
		<path id="XMLID_72_" class="st9" d="M202.3,154.1h-38c-15.3,0-27.8,12.4-27.8,27.8l0,0c0,15.3,12.4,27.8,27.8,27.8h5
			c8.1,0,14.6,6.5,14.6,14.6v1.5c0,9.7,7.9,17.6,17.6,17.6l0,0v-18c0.2,0,0.4,0.2,0.4,0.4v-1.5c0-18-14.6-32.6-32.6-32.6h-5
			c-5.4,0-9.8-4.4-9.8-9.8s4.4-9.8,9.8-9.8h38V154.1z"/>
		<path id="XMLID_81_" class="st4" d="M200,213c-4.6-12.4-16.6-21.4-30.6-21.4h-5c-5.4,0-9.8-4.4-9.8-9.8s4.4-9.8,9.8-9.8h38v-18
			h-38c-15.3,0-27.8,12.4-27.8,27.8l0,0c0,15.3,12.4,27.8,27.8,27.8h5c8.1,0,14.6,6.5,14.6,14.6v1.5c0,9.7,7.9,17.6,17.6,17.6"/>
	</g>
	<g id="XMLID_28_">
		<path id="XMLID_82_" class="st8" d="M251.6,166.8l32.9-1.7l15.4,1.7c0,0,10.3,7.7,10.3,9.8c0,2.1-1,19.2-1,19.2
			s-24.3,3.3-26.9,5.8c-2.6,2.6-18,16.9-18,16.9l-14.9-5.8l-7.8-20.8L251.6,166.8z"/>
		<path id="XMLID_79_" class="st9" d="M257.4,154.1h38c15.3,0,27.8,12.4,27.8,27.8l0,0c0,15.3-12.4,27.8-27.8,27.8h-5
			c-8.1,0-14.6,6.5-14.6,14.6v1.5c0,9.7-7.9,17.6-17.6,17.6l0,0v-18c-0.2,0-0.4,0.2-0.4,0.4v-1.5c0-18,14.6-32.6,32.6-32.6h5
			c5.4,0,9.8-4.4,9.8-9.8s-4.4-9.8-9.8-9.8h-38V154.1z"/>
		<path id="XMLID_71_" class="st4" d="M259.8,213c4.6-12.4,16.6-21.4,30.6-21.4h5c5.4,0,9.8-4.4,9.8-9.8s-4.4-9.8-9.8-9.8h-38v-18
			h38c15.3,0,27.8,12.4,27.8,27.8l0,0c0,15.3-12.4,27.8-27.8,27.8h-5c-8.1,0-14.6,6.5-14.6,14.6v1.5c0,9.7-7.9,17.6-17.6,17.6"/>
	</g>
	
		<ellipse id="XMLID_74_" transform="matrix(0.1602 -0.9871 0.9871 0.1602 6.8417 388.4415)" class="st11" cx="231.7" cy="190.2" rx="39" ry="39"/>
	<path id="XMLID_2426_" class="st9" d="M194.4,178.7c10.8,6.9,23.6,11,37.3,11c13.7,0,26.5-4,37.3-11c-4.9-16-19.7-27.6-37.3-27.6
		C214.2,151.2,199.3,162.8,194.4,178.7z"/>
	
		<ellipse id="XMLID_23_" transform="matrix(0.1602 -0.9871 0.9871 0.1602 6.8417 388.4415)" class="st4" cx="231.7" cy="190.2" rx="39" ry="39"/>
	<path id="XMLID_70_" class="st12" d="M231.7,212.8L231.7,212.8c-12.7,0-23-10.3-23-23v-17.2c0-3.2,2.6-5.8,5.8-5.8H249
		c3.2,0,5.8,2.6,5.8,5.8v17.2C254.7,202.5,244.4,212.8,231.7,212.8z"/>
	<path id="XMLID_2425_" class="st13" d="M249,166.8h-34.5c-3.2,0-5.8,2.8-5.8,6.2v14.1c7.2,2.7,14.9,4.2,23,4.2s15.8-1.5,23-4.2V173
		C254.7,169.6,252.1,166.8,249,166.8z"/>
	<path id="XMLID_15_" class="st4" d="M231.7,212.8L231.7,212.8c-12.7,0-23-10.3-23-23v-17.2c0-3.2,2.6-5.8,5.8-5.8H249
		c3.2,0,5.8,2.6,5.8,5.8v17.2C254.7,202.5,244.4,212.8,231.7,212.8z"/>
	<path id="XMLID_25_" class="st4" d="M209.5,201.7"/>
	<rect id="XMLID_30_" x="235.2" y="471.9" class="st14" width="21.4" height="68.3"/>
	<rect id="XMLID_33_" x="235.2" y="471.9" class="st4" width="21.4" height="68.3"/>
	<path id="XMLID_54_" class="st4" d="M130.3,426.7c-0.9-2.1-1.6-4.2-2.2-6.5C129.2,422.4,129.9,424.5,130.3,426.7z"/>
	<path id="XMLID_51_" class="st4" d="M339.4,426.5c0.4-2.1,1.1-4.1,2-6C340.9,422.6,340.2,424.6,339.4,426.5z"/>
	<g id="XMLID_88_">
		<path id="XMLID_73_" class="st15" d="M339.1,421.7H130.6c-7.4,0-13.7-5.5-14.7-12.9l-13-101.8c-1.1-8.8,5.8-16.7,14.7-16.7h234.5
			c8.9,0,15.8,7.8,14.7,16.7l-13,101.8C352.8,416.1,346.5,421.7,339.1,421.7z"/>
		<path id="XMLID_1188_" class="st16" d="M353.7,402.4c-0.9,7.4-7.2,12.9-14.7,12.9H130.6c-7.4,0-13.7-5.5-14.7-12.9l-12.8-100.3
			c-0.3,1.6-0.4,3.2-0.2,4.9l13,101.8c0.9,7.4,7.2,12.9,14.7,12.9h208.5c7.4,0,13.7-5.5,14.7-12.9l13-101.8c0.2-1.7,0.1-3.3-0.2-4.9
			L353.7,402.4z"/>
		<path id="XMLID_91_" class="st16" d="M103,307.9c1.2-6.8,7.2-12.2,14.5-12.2H352c7.4,0,13.3,5.3,14.5,12.2l0.1-1
			c1.1-8.8-5.8-16.7-14.7-16.7H117.6c-8.9,0-15.8,7.8-14.7,16.7L103,307.9z"/>
		<path id="XMLID_29_" class="st4" d="M339.1,421.7H130.6c-7.4,0-13.7-5.5-14.7-12.9l-13-101.8c-1.1-8.8,5.8-16.7,14.7-16.7h234.5
			c8.9,0,15.8,7.8,14.7,16.7l-13,101.8C352.8,416.1,346.5,421.7,339.1,421.7z"/>
		<path id="XMLID_1190_" class="st17" d="M244.7,349.8c-4.5,0-8.1-3.6-8.1-8.1c0-0.3,0-0.6,0.1-0.9c-0.8-0.1-1.6-0.2-2.4-0.2
			c-7.3,0-13.3,6-13.3,13.3s6,13.3,13.3,13.3s13.3-6,13.3-13.3c0-1.5-0.3-3-0.7-4.4C246.2,349.6,245.5,349.8,244.7,349.8z"/>
	</g>
	<g id="XMLID_39_">
		<path id="XMLID_36_" class="st1" d="M347.9,510.7c-3.3-10.7-13.4-16.4-29.8-21.2c-10.4-3-23.6-4.4-44.3-8.6c-10.1-2-17.2-6-17.2-6
			v11.5c0,0,68.5,13.5,79.2,31.2c5.2,8.7,3.6,30-20.9,32.2c7.5,1.1,19.8-0.8,26.4-7.5C349.5,534,351.7,522.9,347.9,510.7z"/>
		<path id="XMLID_52_" class="st2" d="M256.6,486.4c0,0,41,7.6,62.9,17c19.2,8.3,18.6,16.9,19.1,25.7c0.3,5.1-3.3,17.7-17.9,19.9
			c-17.4,2.6-37.9-0.2-64.1-16.9C256.6,491.2,256.6,486.4,256.6,486.4z"/>
		<path id="XMLID_1212_" class="st3" d="M338.6,529.1c-0.4-7.1-0.1-14.1-10.1-20.9c0.4,2.5,0.5,4.9,0.6,7.4
			c0.3,5.1-3.3,17.7-17.9,19.9c-15.2,2.3-32.9,0.4-54.6-11.3c0,2.5,0,5.1,0,7.8c26.2,16.7,46.7,19.4,64.1,16.9
			C335.4,546.8,338.9,534.1,338.6,529.1z"/>
		<path id="XMLID_34_" class="st4" d="M256.6,486.4c0,0,41,7.6,62.9,17c19.2,8.3,18.6,16.9,19.1,25.7c0.3,5.1-3.3,17.7-17.9,19.9
			c-17.4,2.6-37.9-0.2-64.1-16.9C256.6,491.2,256.6,486.4,256.6,486.4z"/>
		<path id="XMLID_37_" class="st4" d="M294.6,509.9c3.3,1.8,2.5,19.3-5.5,21.7"/>
		<path id="XMLID_38_" class="st4" d="M282.1,508.6c3.4,4.8,1,16.1-5.1,18.9"/>
		<path id="XMLID_40_" class="st4" d="M270.6,504.6c3.4,4.8,1,16.1-5.1,18.9"/>
	</g>
	<line id="XMLID_83_" class="st18" x1="196.6" y1="233.2" x2="196.6" y2="286.4"/>
	<line id="XMLID_84_" class="st18" x1="264.1" y1="233.2" x2="264.1" y2="270.7"/>
	<circle id="XMLID_27_" cx="264.1" cy="273.7" r="8.3"/>
	<circle id="XMLID_86_" class="st19" cx="264.1" cy="272.7" r="3.4"/>
	<g id="XMLID_41_">
		<path id="XMLID_5_" class="st12" d="M231.7,183.7L231.7,183.7c-34.8,0-63.1-28.2-63.1-63.1V47.4h126.2v73.2
			C294.8,155.4,266.6,183.7,231.7,183.7z"/>
		<path id="XMLID_1198_" class="st13" d="M231.7,175L231.7,175c-34.8,0-63.1-28.2-63.1-63.1v8.7c0,34.8,28.2,63.1,63.1,63.1l0,0
			c34.8,0,63.1-28.2,63.1-63.1v-8.7C294.8,146.7,266.6,175,231.7,175z"/>
		<path id="XMLID_2424_" class="st4" d="M231.7,183.7L231.7,183.7c-34.8,0-63.1-28.2-63.1-63.1V47.4h126.2v73.2
			C294.8,155.4,266.6,183.7,231.7,183.7z"/>
		<path id="XMLID_1197_" class="st13" d="M295.3,54.7c-0.2-3.4-0.4-6.9-0.5-10.3c-42,2-84.2,1.7-126.1-2c-0.3,3.9-0.5,7.8-0.8,11.7
			c1.9,1.7,3.9,3.5,5.8,5.2c1.6,0.8,3.7,1.9,5.6,2.9c8.4,4.4,20.1,10,31.3,12.2c4.1,0.8,8.4,1.2,12.8,1.1
			c18.9-0.2,34.8-7.7,41.5-10.8c1-0.5,1.8-0.9,2.3-1c0.4-0.2,0.8-0.3,1.4-0.3c1.2,0,2.6,0.3,4.3,0.6c2.2,0.5,4.8,1,7.7,0.8
			c3.3-0.2,6.3-1.2,9.2-3.1C291.5,59.3,293.4,57,295.3,54.7z"/>
		<path id="XMLID_68_" class="st20" d="M264.9,16.7c0,0-50.5-33.3-92.3,3.9c-7.8,6.9-10.9,16.8-10.9,25.9v48.2h7v-35
			c0-2.6,1.8-4.6,4-4.6l0,0c3.6,0,23.1,10.4,39.6,13.3c24.9,4.3,47.6-7.2,52.5-8.9c8.4-3,15.2,7.4,25.8-4.3h0.4c2.2,0,4,2.1,4,4.6
			v35h7v-48C301.8,35,288.2,5.4,264.9,16.7z"/>
		<g id="XMLID_2783_" class="st21">
			<rect id="XMLID_2784_" x="161.6" y="88.1" class="st20" width="7" height="6.6"/>
			<rect id="XMLID_2785_" x="294.8" y="88.1" class="st20" width="7" height="6.6"/>
		</g>
		<path id="XMLID_3_" class="st4" d="M264.9,16.7c0,0-50.5-33.3-92.3,3.9c-7.8,6.9-10.9,16.8-10.9,25.9v48.2h7v-35
			c0-2.6,1.8-4.6,4-4.6l0,0c3.6,0,23.1,10.4,39.6,13.3c24.9,4.3,47.6-7.2,52.5-8.9c8.4-3,15.2,7.4,25.8-4.3h0.4c2.2,0,4,2.1,4,4.6
			v35h7v-48C301.8,35,288.2,5.4,264.9,16.7z"/>
		<path id="XMLID_6_" class="st4" d="M222.2,49.2c0,0-54.2,3.5-65.7-25.3"/>
		<path id="XMLID_9_" class="st4" d="M229.9,42.3c0,0-52.2-3.3-65.8-32.1"/>
		<path id="XMLID_85_" class="st12" d="M294.8,86.9v32.8c7,0,12.6-7.3,12.6-16.4l0,0C307.4,94.2,301.8,86.9,294.8,86.9z"/>
		<path id="XMLID_1205_" class="st13" d="M294.8,88.7v29.1c4.1-2.7,6.9-8.2,6.9-14.6l0,0C301.7,96.9,298.9,91.4,294.8,88.7z"/>
		<path id="XMLID_12_" class="st4" d="M294.8,86.9v32.8c7,0,12.6-7.3,12.6-16.4l0,0C307.4,94.2,301.8,86.9,294.8,86.9z"/>
		<path id="XMLID_87_" class="st12" d="M168.7,86.9v32.8c-7,0-12.6-7.3-12.6-16.4l0,0C156,94.2,161.7,86.9,168.7,86.9z"/>
		<path id="XMLID_1203_" class="st13" d="M168.7,89.3c-3.6,2.9-6.1,8.1-6.1,14l0,0c0,5.9,2.4,11.1,6.1,14V89.3z"/>
		<path id="XMLID_11_" class="st4" d="M168.7,86.9v32.8c-7,0-12.6-7.3-12.6-16.4l0,0C156,94.2,161.7,86.9,168.7,86.9z"/>
		<path id="XMLID_7_" class="st4" d="M229.1,113.6l-4.2,13.7c0,1.5,4.9,0.3,9.9,1.5"/>
		<path id="XMLID_16_" class="st22" d="M252.7,139.2c1.5,10.4-11.9,19.6-22.4,17.7"/>
		<g id="XMLID_19_">
			<ellipse id="XMLID_14_" class="st23" cx="209" cy="97.5" rx="4.2" ry="4.5"/>
			<ellipse id="XMLID_20_" cx="209" cy="97.5" rx="4.2" ry="4.5"/>
			<path id="XMLID_17_" class="st22" d="M194.5,88c2.1-2.5,7-4.2,12.8-4.2c4.6,0,8.6,1.1,11.1,2.8"/>
		</g>
		<g id="XMLID_13_">
			<ellipse id="XMLID_22_" class="st23" cx="255" cy="97.5" rx="4.2" ry="4.5"/>
			<ellipse id="XMLID_21_" cx="255" cy="97.5" rx="4.2" ry="4.5"/>
			<path id="XMLID_18_" class="st22" d="M269.5,88c-2.1-2.5-7-4.2-12.8-4.2c-4.6,0-8.6,1.1-11.1,2.8"/>
		</g>
	</g>
</g>
<g>
</g>
<g>
</g>
<g>
</g>
<g>
</g>
<g>
</g>
<g>
</g>
<g>
</g>
<g>
</g>
<g>
</g>
<g>
</g>
<g>
</g>
<g>
</g>
<g>
</g>
<g>
</g>
<g>
</g>
</svg>
